<svg xmlns="http://www.w3.org/2000/svg" xml:space="preserve" width="516" height="524.94" viewBox="0 0 136.52 138.89"><path d="M56.47 214.6a23 23 0 0 1-15.85-12.43c-2.3-4.77-2.08.75-2.17-55.56-.07-44.8-.04-50.23.34-52.1a22 22 0 0 1 6.34-11.67 22 22 0 0 1 11.56-6.33c1.82-.37 7.32-.41 49.96-.41 42.68 0 48.13.04 49.95.42 7.3 1.5 13.74 6.93 16.64 14.02 1.79 4.4 1.69.81 1.6 56.07-.09 56.31.13 50.79-2.17 55.56a22.6 22.6 0 0 1-12.1 11.25c-4.35 1.68-1.13 1.59-54.14 1.56-39.52-.03-48.63-.1-49.96-.39" style="fill:#fff" transform="translate(-38.38 -76.1)"/><path d="M56.47 214.6a23 23 0 0 1-15.85-12.43c-2.3-4.77-2.08.75-2.17-55.56-.07-44.8-.04-50.23.34-52.1a22 22 0 0 1 6.34-11.67 22 22 0 0 1 11.56-6.33c1.82-.37 7.32-.41 49.96-.41 42.68 0 48.13.04 49.95.42 7.3 1.5 13.74 6.93 16.64 14.02 1.79 4.4 1.69.81 1.6 56.07-.09 56.31.13 50.79-2.17 55.56a22.6 22.6 0 0 1-12.1 11.25c-4.35 1.68-1.13 1.59-54.14 1.56-39.52-.03-48.63-.1-49.96-.39m36.97-40.58c8.15-3.9 11.75-5.14 16.33-5.64 3.15-.35 5.7-.1 10.3 1.02 3.17.77 5.08.76 9.92-.02l5.15-.83c1.4-.22 3.82-.81 5.35-1.3 6.4-2.06 7.95-1.93 16.49 1.35 1.27.5 2.37.9 2.44.9.08 0 .14-.34.14-.75 0-.73-.13-.8-4.03-2.25-5-1.84-5.87-2.07-8.25-2.1-2.17-.01-3.62.28-7.58 1.53a57 57 0 0 1-8.3 1.7l-5.6.8c-.06 0-.13-4.55-.17-10.11l-.07-10.12-.64-.01c-.55 0-.65-.14-.7-.93-.02-.5-.06-1.07-.08-1.25-.02-.23-.6-.33-1.88-.33h-1.86v-25.4h2.35c1.3 0 2.72-.07 3.18-.16l.82-.17v23.32c0 20.55.05 23.31.4 23.31s.4-2.75.4-23.15c0-24.64-.06-23.46 1.17-22.99.37.15.41 2.42.41 23.02 0 20.14.05 22.86.4 22.86s.4-2.8.4-23.66v-23.65l-1.24-.42c-1.34-.46-2.9-.52-6.66-.25l-2.42.17v27.17h-2.35l-.08 1.26c-.08 1.12-.14 1.25-.67 1.17-.57-.08-.59 0-.66 2.78l-.08 2.86-1.91.08-1.92.08v12.94h-1.26c-1.85 0-5.67.72-7.72 1.47-1 .35-2 .64-2.26.64-.5 0-2.95-1.03-6.75-2.85-2.51-1.2-2.52-1.2-5.78-1.3l-3.27-.08-3.61-1.7a68 68 0 0 0-5.26-2.25c-3.4-1.13-7.84-1.14-12.23-.02-2.07.53-9.55 2.99-10.08 3.31-.22.14-.13 1.08.14 1.4.03.03 1.72-.52 3.75-1.24 2.04-.71 4.94-1.6 6.46-1.97 6.74-1.64 9.54-1.24 17.3 2.49l2.92 1.4 3.44.16 3.44.16 3.56 1.6c1.95.89 3.6 1.73 3.65 1.88s-.43.48-1.05.73c-.62.24-2.84 1.23-4.92 2.19-2.74 1.26-3.74 1.84-3.64 2.11.08.2.15.49.15.62 0 .48.78.21 4.52-1.58m27.1-6.01c-.88-.21-2.04-.5-2.58-.65l-1-.27v-17.97h7.37l.19 1.47c.1.8.14 5.15.08 9.65l-.1 8.2-1.19-.03c-.65 0-1.9-.19-2.77-.4m-2.25-20.6c0-.67 0-.67 2.51-.67s2.51 0 2.51.66 0 .66-2.5.66-2.52 0-2.52-.66m-16.3 19.45.69-.26v-16c0-15.56.01-16.02.5-16.29.29-.15.65-.27.8-.27.2 0 .28 4.85.28 16 0 9.55.1 16.01.25 16.01 1.12 0 1.08.59 1.08-16.3v-15.97h1.58v15.89c0 15 .03 15.89.47 15.8.42-.08.47-.58.53-5.3l.07-5.23h1.06c.64 0 1.06-.13 1.09-.33.02-.18.05-.75.06-1.26.03-.92.04-.92 1.49-1.05l1.45-.14.07-8.1c.08-9.33.01-9.8-1.65-10.73-2.38-1.33-7.03-1.42-9.57-.19l-1.02.5v16.74c0 9.2.02 16.73.05 16.73zm-2.76-15.16c0-8.18-.09-15-.2-15.16-.1-.16-.88-.8-1.71-1.43l-1.53-1.14-4.16.37-4.17.36-.07 14.22c-.06 14.1-.06 14.22.47 14.22.52 0 .53-.15.53-13.6v-13.59l.6-.14c.32-.08 1.81-.23 3.3-.33l2.71-.19v29.39l1.92.93c1.06.51 2 .94 2.12.95.1.01.2-6.67.2-14.86m34.31 13.94.77-.16-.03-3.35c-.03-3.79 0-4.01.7-4.01.49 0 .5-.43.54-12.64.04-14.79.04-14.73.3-14.81 1.01-.34.99-.66.99 13.7 0 12.99.02 13.78.46 13.7.43-.09.47-.99.53-13.78.07-13.47.08-13.69.6-13.69s.52.2.52 13.76c0 13.58.01 13.76.53 13.76.53 0 .53-.18.53-13.73 0-13.5.01-13.73.53-13.87.53-.13.53 0 .53 13.73 0 13.7 0 13.87.53 13.87.52 0 .53-.18.53-15.22V127.7h-7.67v5.56h-2.38v16.27c0 13.63.05 16.27.36 16.27.2 0 .7-.07 1.13-.15m25.23-2.9v-3.04h-1.85v-3.96h-2.12v8.69l1.39.51 1.78.66c.22.08.5.16.6.17s.2-1.35.2-3.02m-19.18 1.49c1.45-.45 3.03-.89 3.5-.98l.86-.17v-3.39l-3.99.07-4 .08.02 2.44.02 2.73c.02.32-.09.34 3.59-.78m13.44-7.7-.04-7.01-.68-.09c-.6-.07-.69-.2-.69-1.12v-1.04h-2.38v1.06c0 1-.04 1.06-.79 1.06h-.8v4.05c0 2.23-.05 4.11-.11 4.18-.07.06-.6.07-1.2.01l-1.07-.1v-13.42l-.79-.41-.8-.41v14.83h1.84l.08 2.25.07 2.26 2.12.11c1.16.07 2.65.3 3.3.5 2.13.69 2 1.14 1.94-6.71m-67.29-8.31v-14.93l1.72-.19 1.72-.18v-12.13c0-10.68-.04-12.11-.4-11.98-.32.13-.4.87-.4 4.46v4.3l-3.48 1.02c-1.93.56-3.79 1.26-4.14 1.57-.6.51-.67.92-1.29 6.75-.57 5.45-.67 7.83-.79 19.59l-.13 13.38 1.34.66c.74.37 1.41.6 1.49.53.07-.07.13-8.15.13-17.95 0-17.63 0-17.81.53-17.81.6 0 .54-2.49.57 21.56 0 7.13.1 13.44.19 14.03.14.92.31 1.13 1.36 1.64a9 9 0 0 0 1.38.6c.11 0 .2-6.71.2-14.92M57.1 161.1l2.2-.72v-8.09l-1.46.03-1.46.04v4.95h-1.85v2.25c0 1.24.08 2.25.19 2.25s1.17-.32 2.38-.71m4.64-9.01.07-7.6 2.18-.09 2.18-.07v14.07l1.13-.08 1.12-.08.08-3.24.07-3.24h2.1v-4.1c0-3.89-.03-4.1-.51-4.1-.4 0-.53-.22-.6-1l-.08-.99-3.64-.07-3.63-.08v1.07c0 .89-.1 1.07-.53 1.07-.52 0-.53.17-.53 8.07 0 5.11.1 8.06.26 8.06s.28-2.83.33-7.6m14.49 3.97v-2.85l-3.04.08-3.05.09v4.73l.86.03c.48.01 1.64.17 2.58.35 2.9.56 2.65.8 2.65-2.43m1.06-12.17c0-4.33.08-8.68.17-9.66l.17-1.79h-1.67v2.78c0 2.28-.07 2.78-.39 2.78-.33 0-.4.8-.46 5.1l-.07 5.09-1.33.13-1.32.13-.08 1.29c-.13 2-.12 2.02 2.59 2.02h2.39zm40.74-4.83v-5.03h-2.38v10.05h2.38zm-23.08-6.61h1.39v-6.62h-5.56v6.95l1.39-.17c.76-.09 2.01-.16 2.78-.16m6.75-.64 1.25-.5v-11.24l1.18-.3c1.47-.37 4.2-.38 5.5-.01l1 .27v11.08l1.3.67c.73.36 1.39.66 1.46.66s.14-1.79.14-3.97v-3.98l-.66-.25-.66-.25v-10.35l-.66-.25c-.6-.22-.66-.4-.66-1.68 0-1.36-.04-1.45-.86-1.8-1.03-.43-5.54-.43-6.62 0-.67.27-.72.4-.72 1.76 0 1.33-.07 1.5-.66 1.72l-.67.25v5.28c0 5.28 0 5.28-.6 5.37-.58.08-.59.16-.66 4.14-.04 2.23.02 4.02.13 3.97zm7.6-5.83v-4.85l-.83-.16a10 10 0 0 0-1.68-.17c-.48 0-1.23.08-1.69.17l-.83.16V131l2.52-.09 2.51-.08zm-2.51-17.75c1.3 0 2.77.1 3.25.23l.88.22-.08-1.41c-.07-1.1-.19-1.43-.55-1.5s-.46.1-.46.88c0 .77-.09.94-.46.87-.34-.06-.49-.39-.55-1.2-.07-1-.15-1.13-.72-1.13-.58 0-.65.11-.65 1.08 0 .96-.06 1.07-.6.99-.47-.07-.6-.28-.67-1.08-.07-.84-.18-.99-.72-.99-.55 0-.64.14-.7 1.12-.07.82-.21 1.15-.55 1.21-.37.07-.47-.1-.47-.87 0-.78-.09-.95-.46-.88-.36.07-.48.4-.54 1.5l-.08 1.4.87-.21a19 19 0 0 1 3.26-.23" style="fill:#939fac" transform="translate(-38.38 -76.1)"/><path d="M57.83 214.82a26 26 0 0 1-10.02-4.15 26 26 0 0 1-6.26-6.76 25 25 0 0 1-2.9-8.09c-.2-1.28-.26-17.13-.2-51.33l.07-49.48.6-1.93c2.52-8.14 7.92-13.63 15.85-16.12l2.33-.73h98.43l2.11.61c8.58 2.48 15 9.5 16.7 18.26.3 1.63.37 9.74.37 50.54 0 32.43-.1 49.16-.28 50.31a22.7 22.7 0 0 1-13 16.92c-4.66 2.18.61 1.98-54.2 2.02-26.84.02-49.16-.01-49.6-.07m39.42-42.48c4.04-1.82 7.38-3 9.93-3.52 3.12-.64 8.41-.42 12.3.5 1.73.42 3.68.7 4.82.7 2.56 0 12.02-1.45 14.72-2.27 4.57-1.37 6.11-1.7 8.08-1.7 2.4.01 3.53.3 8.47 2.12 3.81 1.41 4.42 1.47 4.21.36-.06-.34-.85-.8-2.6-1.5-8.34-3.32-10.36-3.46-17.46-1.23-2.35.74-4.7 1.24-8.07 1.7-2.62.37-5.03.67-5.36.67h-.6v-20.11h-.64c-.59 0-.66-.12-.73-1.25l-.08-1.26-1.46-.03c-.8-.02-1.66-.05-1.92-.07-.43-.03-.46-.76-.4-12.53l.08-12.5 3.1-.08 3.11-.07v23.15c0 20.41.05 23.16.4 23.16s.4-2.75.4-23.18c0-21.02.04-23.16.42-23.01.23.08.58.16.79.16.32 0 .37 3.3.37 22.88 0 20.17.05 22.89.4 22.89s.4-2.8.4-23.69v-23.68l-.73-.32c-.8-.35-7.32-.6-8.7-.34l-.89.16v26.94l-1.26.08-1.25.08-.08 1.26c-.08 1.13-.15 1.25-.73 1.25h-.65v5.82h-3.69l-.07 6.42-.08 6.42-1.32.07q-3.86.2-7.42 1.4l-2.39.82-2.77-1.24c-6.86-3.08-6.17-2.87-9.78-3.03l-3.3-.15-3.47-1.63c-4.14-1.96-6.02-2.61-8.6-3.01-3.6-.56-8.06.2-14.81 2.54-1.95.68-3.76 1.3-4.01 1.37-.54.16-.66 1.67-.14 1.67.19 0 2.24-.66 4.57-1.46 5.6-1.92 8.32-2.5 11.73-2.5 3.57-.01 5.04.38 10.26 2.79l4.27 1.96h2.83c3.1 0 3.77.2 8.88 2.59l2.25 1.05-1.27.55-5.08 2.31-3.83 1.76.4.75.39.76 2.57-1.22zm25.14-4.04c-.15-.05-1.43-.35-2.85-.66l-2.58-.57.07-8.9.07-8.92h7.14l.07 9.6.07 9.59-.86-.02a6 6 0 0 1-1.13-.12m-4.1-20.9c0-.65.01-.66 2.38-.66 2.36 0 2.38 0 2.38.66s-.02.66-2.38.66c-2.37 0-2.38 0-2.38-.66m-16.03 19.46.68-.26v-16.15c0-9.63.1-16.15.24-16.15s.44-.07.67-.16c.37-.14.41 1.38.41 15.99v16.14l.73-.2.73-.19.07-16.05c.06-15.83.07-16.05.6-16.05.6 0 .56-1.28.62 19.18l.03 12.43.6.09.58.08.07-5.24.08-5.25 1.12-.08 1.12-.08v-2.61h2.91v-8.43c0-5.16-.1-8.73-.27-9.22-.77-2.21-6.85-3.2-10.7-1.75l-1.33.5-.07 16.85c-.04 10.43.03 16.86.18 16.86s.56-.11.93-.25m-3.02-15.2V136.5l-1.4-1.05c-2.13-1.61-2.03-1.6-6.47-1.18l-4.04.38v28.5h1.32v-27.19l1.4-.15 3.04-.32 1.65-.17v29.3l2.18 1.1c1.2.61 2.21 1.11 2.25 1.12s.07-6.81.07-15.16m59.62 13.03c-.03-.63-.06-2.01-.07-3.07l-.02-1.92h-1.57l-.07-2.05-.08-2.05-.9-.08c-.49-.05-1 .02-1.13.16-.34.34-.43 8.52-.1 8.75.45.3 3.7 1.55 3.85 1.47.08-.03.12-.58.1-1.21m-24.5-2.8.08-3.77h1.31v-13.76c0-13.58 0-13.76.53-13.76.52 0 .53.18.53 13.76s0 13.76.53 13.76c.52 0 .53-.18.53-13.76s0-13.76.53-13.76c.52 0 .52.18.52 13.76s.01 13.76.53 13.76c.53 0 .53-.18.53-13.76s.01-13.76.53-13.76.53.18.53 13.78v13.77l.6-.08.6-.09.06-15.14.07-15.15h-7.92l-.08 2.71-.08 2.71-1.12.09-1.12.08v32.54l1.12-.08 1.12-.08zm4.31 2.7c1.23-.38 2.95-.88 3.83-1.13l1.58-.46v-3.43h-8.2l-.07 2.85c-.06 2.23 0 2.84.27 2.84.2 0 1.36-.3 2.6-.67m14.54-7.93v-7.27h-.8c-.74 0-.79-.06-.79-1.06v-1.06h-2.64v1.06c0 1-.05 1.06-.8 1.06h-.79v8.2h-1.85v-13.52l-.92-.39c-.5-.2-.98-.38-1.06-.38-.07 0-.14 3.33-.14 7.4v7.42h2.12v4.76h2.05c1.74 0 2.84.2 5.56 1.04.03 0 .06-3.26.06-7.26m-67.47-8.46v-14.95h.9c.49 0 1.26-.08 1.72-.17l.82-.16v-12.14c0-10.61-.05-12.14-.4-12.14-.33 0-.4.67-.4 4.43v4.43l-3.6 1.04c-1.97.57-3.82 1.23-4.1 1.46-.6.48-.7 1.13-1.54 9.94-.45 4.67-.54 7.52-.54 17.86v12.3l1.25.53 1.45.62c.12.05.21-7.96.21-17.8 0-17.7 0-17.88.53-17.88.52 0 .53.18.53 18.12v18.12l1.26.66c.69.36 1.4.66 1.58.66.26.01.33-3.15.33-14.93M57.1 161.18l2.18-.72v-8.16h-3.17v5.02h-1.85v2.41c0 1.82.08 2.38.33 2.3.18-.08 1.31-.46 2.51-.85m4.83-9.16v-7.68l2.05.07 2.05.08.07 7.1.07 7.12.6-.16c.32-.09.85-.16 1.18-.16.59 0 .6-.06.6-3.32v-3.3h2.38v-4.1c0-3.89-.03-4.1-.52-4.1-.4 0-.53-.22-.6-1l-.07-.99h-7.68l-.08 1c-.06.77-.2.99-.6.99-.5 0-.5.26-.5 8.07 0 7.89 0 8.06.52 8.06s.53-.17.53-7.68m14.34 4-.08-2.93h-6.32v5l1.26.15c.69.09 2.09.31 3.1.5 1.02.18 1.92.3 1.99.28.07-.03.1-1.38.05-3m1.06-10.54c-.04-3.45.02-7.8.14-9.65l.21-3.38h-1.73v2.78c0 2.6-.03 2.78-.53 2.78s-.52.18-.52 5.01v5.01l-1.26.08-1.26.09-.08 1.78-.07 1.79h5.18zm40.9-6.35-.08-4.96-1.25-.08-1.26-.08v10.08h2.66zm-23.93-6.58 2.03-.17v-6.54h-5.85l.04 3.44.04 3.44h.86c.47 0 1.77-.08 2.88-.17m8.64-6.77v-5.51l.73-.29c1.17-.46 4.12-.59 5.6-.23l1.34.32v11.21l1.46.67 1.45.68v-4.2c0-4-.02-4.18-.52-4.18-.3 0-.54-.15-.55-.33l.02-4.5c.02-5.11-.1-5.97-.96-6.18-.57-.14-.63-.3-.63-1.58 0-1.2-.1-1.46-.6-1.73-.86-.47-4.34-.6-6.1-.24l-1.5.31v1.56c0 1.45-.05 1.58-.66 1.73l-.66.17-.07 5.33c-.07 5.3-.07 5.33-.66 5.41s-.6.13-.6 4.3v4.21l1.46-.71 1.45-.72zm6.35.28c0-5.63.18-5.25-2.51-5.25-2.7 0-2.52-.38-2.52 5.25V131h5.03zm1.27-20.37c-.6-.38-.74-.25-.74.72 0 .76-.1.93-.46.86-.28-.06-.48-.36-.5-.75l-.07-.96c-.04-.43-1.16-.66-1.4-.28-.12.17-.2.7-.21 1.18q0 .87-.4.86c-.29 0-.4-.3-.4-1.05 0-1.17-.18-1.38-1.01-1.16-.47.12-.58.35-.58 1.18 0 .85-.09 1.03-.53 1.03-.42 0-.53-.18-.53-.93 0-1 0-1-.63-.76-.32.12-.42.53-.42 1.6v1.44l1.25-.21c1.64-.28 5.31-.2 6.15.12.66.25.67.23.75-1.2q.08-1.48-.27-1.69" style="fill:#778999" transform="translate(-38.38 -76.1)"/><path d="M56.9 214.6A23.1 23.1 0 0 1 39 197.67c-.45-1.73-.47-4.77-.47-51.98V95.54l.6-2.24a23.5 23.5 0 0 1 16.36-16.48l2.09-.6 48-.06c41.82-.06 48.32-.02 50.33.33 8.68 1.5 15.67 8 18.28 17l.6 2.05v50.14c0 47.21-.03 50.25-.48 51.98a23 23 0 0 1-12.66 15.2c-4.73 2.2.38 2-54.33 2.05-39.46.04-49.01-.02-50.4-.3m34.87-39.65c6.68-3.35 11.77-5.35 15.63-6.13 3.19-.64 8.23-.43 11.95.5 3.52.9 5.7.9 11.4.05 5.47-.82 7.36-1.23 10.56-2.27 1.86-.61 3.19-.86 5.16-.96 2.45-.13 2.83-.08 5.28.71 1.45.47 3.7 1.26 4.99 1.75 2.87 1.1 3.09 1.1 3.09.14 0-.74-.12-.8-4.3-2.36a60 60 0 0 0-5.89-1.92c-2.25-.46-5.16-.14-8.53.91-1.57.5-3.32 1.02-3.9 1.17-1.21.32-9.98 1.63-10.9 1.63h-.61v-20.11h-.65c-.59 0-.66-.12-.73-1.25l-.08-1.26-1.78-.08c-1.77-.08-1.77-.08-1.92-.92-.09-.47-.12-6.1-.08-12.5l.08-11.64 3.1-.07 3.11-.07v23.15c0 20.41.05 23.16.4 23.16s.4-2.74.4-23.15c0-12.73.05-23.15.11-23.15.07 0 .42.12.8.26l.67.26v22.78c0 21.55.03 22.77.47 22.69s.46-.84.4-12c-.03-6.54-.06-17.16-.07-23.6v-11.7l-.96-.4c-.72-.3-2-.4-5.16-.4h-4.2v27.22l-1.26.08-1.25.08-.08 1.26c-.08 1.13-.15 1.25-.73 1.25h-.65v5.82h-3.7v12.67l-1.26.15c-3.65.42-6.55 1-8.11 1.62l-1.76.7-1.38-.58a231 231 0 0 1-4.43-2c-3.51-1.61-3.99-1.73-7.54-1.8l-2.64-.04-3.44-1.64c-8.97-4.26-12.58-4.29-24.41-.18-3.4 1.18-3.5 1.24-3.5 1.98 0 .45.14.77.33.77s2.47-.72 5.07-1.59c6-2 8.58-2.49 12.28-2.32 3.26.15 3.94.36 9.5 2.9l4.05 1.85 3.1.05 3.1.05 3.76 1.7c2.06.94 3.7 1.75 3.66 1.8-.07.07-8.28 3.89-9.58 4.46-.36.15.07 1.68.47 1.68.14 0 1.29-.52 2.56-1.16m28.5-7.18c-1.45-.34-2.8-.63-2.98-.64-.25-.01-.33-1.97-.33-8.88v-8.86h7.41v19.05l-.73-.02c-.4-.01-1.91-.3-3.37-.65m-1.98-20.37c0-.65.01-.66 2.38-.66 2.36 0 2.38 0 2.38.66s-.02.66-2.38.66c-2.37 0-2.38 0-2.38-.66m-16.03 19.46.68-.26v-32.3h1.32v31.97l.73-.2.73-.19.13-15.98c.13-14.95.16-16 .6-16.07.43-.09.46.8.46 15.8v15.9h1.31l.07-5.21.08-5.21 1.12.01 1.12.02v-2.84h2.91v-8.59c0-5.05-.1-8.86-.26-9.27-.84-2.2-8.07-3.02-11.44-1.29l-.73.37v16.8c0 10.24.1 16.8.25 16.8.13 0 .55-.12.92-.26m-3.02-15.23v-15.21l-1.79-1.32c-1.34-1-1.95-1.3-2.45-1.2-.36.07-2.2.26-4.1.43s-3.5.33-3.57.37c-.07.05-.1 6.46-.06 14.26l.07 14.18h1.31v-27.19l1.79-.17c.98-.09 2.35-.23 3.04-.32l1.26-.15v29.3l2.18 1.1c1.2.61 2.21 1.11 2.25 1.12s.07-6.83.07-15.2m59.8 11.25v-3.18h-1.84l-.07-2.05-.08-2.05h-2.38l-.08 4.27c-.05 3.22.02 4.33.27 4.54.32.27 3.55 1.59 3.97 1.63.11 0 .2-1.41.2-3.16m-24.61-.93v-3.83h1.32v-13.76c0-12.05.05-13.76.4-13.76.34 0 .4 1.7.42 13.56.02 7.46.02 13.65 0 13.76-.01.1.27.2.63.2h.67v-13.76c0-13.58 0-13.76.53-13.76.52 0 .52.18.52 13.73 0 13.5.01 13.73.53 13.86.53.14.53.01.53-13.72 0-13.7.01-13.87.53-13.87s.53.18.53 13.76v13.76h1.32v-30.43h-7.93v5.26l-1.13.08-1.12.08-.07 16.34-.07 16.34h2.39zm6.15 2.1c1.58-.5 3.06-.9 3.27-.9.31 0 .37-.36.31-1.8l-.08-1.78-4.16-.07-4.17-.07v5.89l.97-.18c.53-.1 2.27-.6 3.86-1.09m12.63-7.39v-7.27h-.78c-.72 0-.78-.08-.86-1.13l-.08-1.12h-2.38l-.08 1.12c-.08 1.05-.13 1.13-.86 1.13h-.78v8.2h-1.85v-13.52l-.92-.39c-.5-.2-.98-.38-1.06-.38-.07 0-.14 3.33-.14 7.4v7.39l1 .08.99.08.07 2.28.08 2.28 2.57.14c1.41.08 3.04.32 3.63.55.58.22 1.14.4 1.25.42s.2-3.26.2-7.26m-67.4-8.4.07-14.88.79-.07c.44-.04 1.18-.13 1.65-.21l.86-.14V120.8c0-10.54-.05-12.16-.39-12.16-.32 0-.4.73-.46 4.4l-.07 4.42-3.7 1.12c-3.81 1.17-4.63 1.67-4.64 2.86 0 .3-.3 3.48-.66 7.04-.6 5.92-.66 7.58-.66 19.08v12.6l1.26.5 1.45.59c.11.05.2-7.96.2-17.8 0-17.68 0-17.88.53-17.88.52 0 .53.22.6 18.17l.06 18.17 1.2.61c.65.34 1.33.61 1.51.62.26 0 .34-3.23.4-14.88M57.37 161.1l1.91-.67.06-2.68.07-4v-1.32l-1.65-.08-1.65-.08v5.05h-1.85v2.4c0 2.75-.37 2.6 3.1 1.38m4.56-9.07v-7.67h3.97l.03 6.75c.04 8.04 0 7.4.56 7.38l1.26-.06.8-.05v-6.61h2.38v-4.13c0-3.9-.03-4.13-.53-4.26-.4-.1-.53-.36-.53-1.04v-.9h-7.94v1.07c0 .88-.09 1.06-.53 1.06-.52 0-.53.17-.53 8.07 0 7.89.01 8.06.53 8.06s.53-.17.53-7.67m14.42 4.08v-2.89l-3.25-.07-3.25-.08.07 2.6.08 2.58 2.12.19c1.16.1 2.47.3 2.9.44.44.14.92.22 1.07.18.15-.03.26-1.24.26-2.95m1.2-13.58c0-5.08.06-9.43.15-9.66.13-.33-.03-.42-.8-.42h-.95v2.78c0 2.6-.03 2.78-.53 2.78s-.52.18-.52 5.03v5.02h-2.65v3.71h5.29zm40.68-3.4.07-5.09h-2.66v10.35l1.26-.08 1.25-.08zm-23.69-6.59 1.79-.16v-6.54H90.5v6.88h1.12c.62 0 1.93-.08 2.91-.18m8.4-6.76.13-5.63 1.2-.31c1.53-.4 3.81-.4 5.15 0l1.06.33.13 5.62.14 5.62 1.39.64 1.38.64v-4.19c0-3.97-.02-4.2-.52-4.33-.51-.13-.53-.36-.53-5.34v-5.2l-.8-.3c-.75-.3-.8-.38-.8-1.8v-1.5l-1.17-.3c-1.5-.38-4.34-.38-5.85 0l-1.17.3v1.52c0 1.4-.06 1.54-.66 1.7l-.66.16-.07 5.35c-.07 5.33-.07 5.36-.66 5.44s-.6.13-.6 4.29v4.2l1.39-.64 1.39-.64zm6.4 1.12a56 56 0 0 0-.05-5.03l-.14-.93h-4.75l-.23 3.15c-.12 1.73-.15 3.99-.05 5.02l.18 1.89h4.96zm-4.17-18.53c1.5-.22 4.83.02 5.43.4q.28.16.28-1.44c0-.88-.05-1.6-.11-1.6s-.3-.07-.53-.16c-.34-.13-.42.03-.42.8 0 .66-.12.95-.4.95s-.4-.3-.4-1.03c0-.88-.09-1.06-.67-1.2-.95-.24-1.18 0-1.18 1.2 0 1.45-.63 1.23-.74-.25-.06-.84-.19-1.1-.53-1.09-.92.04-1.24.38-1.24 1.3 0 .67-.13.95-.46 1.02-.38.07-.47-.1-.47-.89 0-.78-.08-.94-.41-.81a3 3 0 0 1-.53.16c-.06 0-.11.73-.11 1.62 0 1.43.05 1.6.46 1.43.25-.1 1.17-.29 2.03-.41" style="fill:#637588" transform="translate(-38.38 -76.1)"/><path d="M57.04 214.6a23.1 23.1 0 0 1-17.91-16.54l-.61-2.24v-50.14c0-48.06.02-50.21.49-51.99 2.4-9 9.5-15.67 18.36-17.2 2.05-.35 8.3-.4 50.35-.33 53.94.08 48.93-.1 53.65 2.08a23.2 23.2 0 0 1 13.14 17.1c.36 2.06.4 8.39.34 51.54l-.08 49.2-.61 2.12a23.3 23.3 0 0 1-18.57 16.53c-1.13.18-17.95.26-49.2.25-38.21-.02-47.86-.1-49.35-.37m34.46-39.52c4.36-2.18 11.3-5.1 13.76-5.79 2.3-.63 3.03-.7 6.8-.7 3.74 0 4.59.08 7.11.71 3.64.92 5.81.93 11.83.05 5.43-.79 6.92-1.11 10.45-2.28 2.35-.78 2.95-.88 5.54-.87 3.11 0 3.01-.02 9.48 2.35 3.16 1.15 3.36 1.16 3.36.18 0-.73-.13-.8-3.64-2.14-7.57-2.88-10.1-3.02-16.24-.92-1.07.37-2.46.79-3.08.93a202 202 0 0 1-10.76 1.57c-.37 0-.41-1.1-.41-10.05v-10.06h-.67c-.61 0-.66-.09-.66-1.32v-1.32h-3.71l.07-12.5.07-12.5 2.98-.08 2.97-.08v23.3c0 12.8.05 23.29.11 23.29.07 0 .3-.07.53-.16.37-.14.41-2.55.41-23.08 0-12.61.03-22.98.07-23.05.04-.06.34-.04.67.05l.6.15v22.8c0 21.57.02 22.8.46 22.7.43-.07.47-1.23.54-19 .05-10.4 0-21.07-.1-23.7l-.17-4.8-1.36-.38c-.97-.26-2.45-.34-5.13-.27l-3.77.1v27.2h-2.65v1.33c0 1.24-.04 1.32-.66 1.32h-.66v2.75c0 3.17 0 3.17-2.27 2.9l-1.43-.16v13l-1.79.16c-3.04.3-4.87.67-7.25 1.48l-2.3.78-3.52-1.62c-5.87-2.69-5.82-2.68-9.22-2.73l-3.04-.04-3.7-1.75c-4.71-2.23-6.81-2.88-9.8-3.05-3.73-.21-8.5.82-15.54 3.37-2.19.8-2.32.88-2.32 1.6q.01.76.38.78c.2 0 2.5-.7 5.1-1.57 6.2-2.05 8.42-2.49 11.97-2.34 3.24.13 4.6.53 9.54 2.85 4.13 1.93 5.1 2.2 7.4 1.97a8 8 0 0 1 2.82.14c1.9.6 7.53 3.26 7.32 3.46a83 83 0 0 1-4.7 2.24 89 89 0 0 0-4.72 2.24c-.24.22.32 1.59.66 1.59.13 0 1.15-.46 2.27-1.03m29.96-7.05c-.94-.2-2.31-.52-3.04-.7l-1.32-.35-.07-8.8-.07-8.8h7.41v19.06l-.6-.03c-.32-.01-1.36-.19-2.3-.38m-3.17-20.63c0-.65.01-.66 2.38-.66 2.36 0 2.38 0 2.38.66s-.02.66-2.38.66c-2.37 0-2.38 0-2.38-.66m-15.41 3.1.07-16.2h1.29v15.91c0 8.76.05 15.96.11 16.02s.42-.01.8-.16l.7-.27.07-15.94c.06-14.94.1-15.95.53-16.03s.46.8.46 15.8v15.9h1.32V155.2h2.36l.08-1.4.08-1.38 1.32-.02 1.32-.03v-9c0-10.44.2-9.7-2.8-10.67-2.38-.76-6.26-.66-8.24.21l-1.26.56v33.9l.86-.35.86-.35zm-3.5 15.75c.07-.32.1-7.17.06-15.2-.07-14.25-.08-14.62-.6-15-.3-.22-1.12-.81-1.85-1.31l-1.32-.9-3.58.35c-1.96.2-3.9.36-4.32.37h-.75l.09 14.3.09 14.28h1.45v-27.19l1.79-.17c.98-.09 2.35-.23 3.04-.32l1.26-.15v29.38l2.05 1.04c1.13.58 2.14 1.06 2.24 1.08s.26-.23.34-.56m35.1-4.26c.08-3.65.1-3.74.67-3.82l.6-.09v-13.74c0-12 .05-13.74.4-13.74.34 0 .4 1.78.46 13.83.06 13.62.07 13.82.6 13.82.52 0 .52-.2.6-13.82.06-13.6.07-13.83.59-13.83s.52.2.52 13.9.01 13.88.53 13.88c.53 0 .53-.17.53-13.89s.01-13.89.53-13.89.53.18.53 13.73c0 12.3.04 13.75.42 13.9.23.08.53.09.66 0 .14-.08.24-6.5.24-15.34v-15.2h-7.93l-.04 1.12-.07 2.58-.03 1.46-1.12.08-1.12.08v32.92l1.18-.1 1.18-.1zm24.55.89v-3.18h-1.85v-4.26l-1.26.08-1.25.08v8.91l1.85.75c1.02.4 2 .75 2.18.77.25.02.33-.77.33-3.15m-19.4 1.49a70 70 0 0 1 3.73-1.08l.86-.19v-3.66h-8.47v2.91c0 3.46-.28 3.31 3.88 2.02m13.58-7.7v-7.28h-.8c-.76 0-.79-.05-.79-1.2v-1.21l-1.25.08-1.26.08-.08 1.12c-.08 1.05-.13 1.13-.86 1.13h-.78v8.2h-1.85V144.1l-.78-.4c-.43-.23-.9-.4-1.06-.4-.19 0-.28 2.4-.28 7.4v7.4l.61.15c.34.09.79.12 1 .07.3-.06.4.38.45 2.2l.08 2.27 2.57.15c1.41.09 3.04.33 3.63.55s1.14.4 1.25.42.2-3.26.2-7.26m-67.4-8.4.07-14.9 1.65-.07 1.65-.08v-12.29c0-10.75-.05-12.29-.4-12.29-.33 0-.4.66-.4 4.36v4.36l-2.7.81c-4.14 1.25-4.95 1.59-5.35 2.2-.22.36-.62 3.18-1.05 7.48-.63 6.37-.68 7.9-.68 19.6v12.67l1.45.72 1.46.71v-17.99c0-17.81 0-17.99.53-17.99.52 0 .53.18.53 18.23v18.22l1.26.55c.69.3 1.4.56 1.58.57.26 0 .34-3.23.4-14.88m-28.7 12.99 2.44-.84v-8.12h-3.44v5.02h-1.85v2.38c0 1.31.09 2.39.2 2.39.1 0 1.3-.38 2.64-.83m4.4-1.45c.37-.14.42-1.08.42-7.8v-7.65h3.97v7.14c0 5.54.07 7.15.33 7.14.18 0 .77-.07 1.32-.16l.98-.16.07-3.21.08-3.21 1.12-.08 1.13-.08v-4.11c0-3.9-.03-4.12-.53-4.25-.4-.1-.53-.36-.53-1.04v-.9h-7.94v.9c0 .68-.13.93-.53 1.04-.51.13-.53.36-.53 8.36 0 4.53.05 8.23.11 8.23s.3-.07.53-.16m14.97-3.68v-3.04h-6.61v5.29l1.39.01c.76 0 2.1.18 2.97.37.88.2 1.74.37 1.92.39.25.02.33-.74.33-3.02m1.06-13.42c0-4.99.08-9.33.17-9.66.14-.54.06-.6-.8-.6h-.96v2.78c0 2.6-.03 2.78-.53 2.78s-.52.18-.52 5.03v5.02h-2.65v3.71h5.29zm40.69-3.58.07-5.09h-2.63l-.08 4.96a77 77 0 0 0 0 5.17c.06.12.65.18 1.33.14l1.24-.08zm-22.24-6.56c.26.1.34-.65.34-3.37v-3.5l-2.91.09-2.91.08v3.38a27 27 0 0 0 .12 3.5c.06.07 1.22.03 2.57-.1a15 15 0 0 1 2.8-.08m6.54-.91c.36 0 .41-.74.41-5.7v-5.7l.73-.3c.4-.16 1.8-.3 3.1-.3 1.32 0 2.72.14 3.12.3l.72.3v11.11l1.26.6 1.46.69c.1.06.2-1.8.2-4.14 0-4-.03-4.24-.53-4.4-.51-.16-.53-.4-.53-5.3v-5.14l-.8-.41c-.73-.38-.8-.52-.8-1.85v-1.44l-1.12-.3c-1.15-.31-5.74-.21-6.61.15-.36.15-.46.5-.46 1.6 0 1.29-.08 1.46-.73 1.8l-.73.4v5.1c0 5.06 0 5.13-.6 5.38-.58.26-.59.37-.59 4.44v4.18l1.05-.54c.57-.29 1.23-.53 1.45-.53m6.9-5.7v-5.02l-2.12-.08c-3.6-.13-3.31-.58-3.31 5.19V131l2.71-.01 2.71-.02zm-4.37-17.55c1.53-.18 4.57.02 5.36.36.4.17.46.01.46-1.42 0-.9-.05-1.62-.11-1.62s-.3-.07-.53-.16c-.34-.13-.42.03-.42.8 0 .66-.12.95-.4.95s-.4-.3-.4-1.03c0-1.06-.29-1.35-1.34-1.35-.41 0-.5.19-.5 1.05 0 .77-.12 1.06-.4 1.06s-.4-.3-.4-1.06c0-.92-.08-1.05-.6-1.05-.93 0-1.23.34-1.17 1.32.04.69-.06.94-.41 1-.38.08-.47-.1-.47-.88s-.08-.94-.41-.81a3 3 0 0 1-.53.16c-.06 0-.11.73-.11 1.62 0 1.43.05 1.59.46 1.42.25-.1 1.12-.26 1.92-.36" style="fill:#536170" transform="translate(-38.38 -76.1)"/><path d="M57.65 214.73c-8.87-1.51-15.64-7.51-18.4-16.32l-.73-2.32v-50.14c0-57.14-.24-51.65 2.42-57.1 2.84-5.8 7.66-9.8 14.3-11.9l2.33-.72h98.16l2.32.73c7.2 2.25 12.52 7.13 15.17 13.9 1.64 4.17 1.56 1.04 1.56 55.22v49.74l-.62 2.12c-.75 2.6-1.89 5.2-2.2 5q-.19-.09-.08.23c.16.41-1.77 3.18-3.42 4.9-2.57 2.7-6.3 4.9-10.5 6.19l-1.97.6-48.55.05c-26.7.02-49.1-.06-49.79-.18m36.22-40.7c5.6-2.62 10-4.38 12.38-4.97 1.28-.3 3.03-.45 5.69-.47 3.36-.02 4.22.07 7 .74 4.14 1 6.06.98 12.87-.07 3.9-.6 6.41-1.14 8.86-1.93 3.13-1 3.66-1.1 6.32-1.1 3.14-.02 2.83-.1 10.4 2.71 2.33.87 2.6.81 2.4-.51-.08-.48-.7-.8-3.54-1.88-7.46-2.82-9.78-2.97-15.87-1.03-2.52.8-4.85 1.3-8.7 1.87-2.89.43-5.42.78-5.62.78-.3 0-.36-1.69-.36-10.05v-10.06h-.67c-.61 0-.66-.09-.66-1.32v-1.32h-3.7v-24.85l.86-.16c.47-.09 1.81-.12 2.97-.08l2.12.08.07 23.24c.06 21.94.1 23.23.53 23.15s.46-1.46.53-23.19l.06-23.1.6.08.6.09.06 22.82c.07 22.6.07 22.82.6 22.82.52 0 .52-.2.52-23.48 0-12.92-.1-23.62-.2-23.78s-.79-.47-1.52-.7c-1.07-.34-2.04-.38-5.1-.24l-3.78.18-.05 13.5-.06 13.49-1.26.08-1.26.08v1.3c0 1.22-.04 1.31-.66 1.31h-.66v5.56h-3.7v12.9l-2.05.19c-2.75.25-5.1.75-7.43 1.6-1.22.44-2.05.6-2.25.45-.17-.13-.73-.4-1.24-.59-.5-.2-2.26-.98-3.89-1.74-3.47-1.63-5.33-2.08-7.5-1.83-1.82.21-2.55.01-6.07-1.65-6.03-2.86-8.26-3.42-12.56-3.16-3.4.21-8.3 1.48-13.96 3.61-1.46.55-1.53.62-1.53 1.51q0 .95.33.81l5.1-1.72c6.09-2.04 8.68-2.55 12.16-2.38 3.16.15 4.6.6 9.8 3.06l3.7 1.76 3.05.01 3.04.02 3.77 1.69c2.07.92 3.77 1.71 3.77 1.76 0 .04-.5.31-1.13.6l-4.69 2.13c-1.96.9-3.67 1.73-3.78 1.84-.24.24.3 1.62.63 1.62.12 0 2.21-.94 4.66-2.08m27.33-6.11c-1.24-.27-2.67-.6-3.18-.73l-.92-.24-.02-8.78-.02-8.78h7.31v9.52c0 8.9-.03 9.52-.46 9.5-.26 0-1.48-.23-2.71-.5m-2.91-20.52c0-.65.01-.66 2.38-.66 2.36 0 2.38 0 2.38.66s-.02.66-2.38.66c-2.37 0-2.38 0-2.38-.66m-15.81 19.52c.43-.12.46-1.13.46-16.37 0-16.07 0-16.25.53-16.25.52 0 .53.18.53 15.86 0 9.78.1 15.92.25 16.02s.56.08.93-.01l.67-.17v-15.98c0-15.8 0-15.98.53-15.98.52 0 .53.18.53 15.7 0 8.63.07 15.76.15 15.85s.38.08.66 0c.49-.12.51-.4.51-5.25v-5.13h2.38v-2.65h2.91v-18.03l-.75-.76c-1.16-1.16-3.29-1.66-6.49-1.53-2 .08-3 .25-3.93.67l-1.26.57v16.98c0 16.06.02 16.96.46 16.78.26-.1.67-.25.93-.32m-2.98-15.15-.02-15.08-.58-.54c-.32-.3-1.14-.95-1.82-1.45l-1.24-.91-4.05.39c-2.24.21-4.21.39-4.4.39-.25 0-.32 3.02-.32 14.24 0 7.84.06 14.3.13 14.38s.44.09.8.02l.65-.13v-27.13l2.32-.17c1.27-.1 2.64-.24 3.04-.32l.73-.14v29.4l2.05 1.05c1.13.58 2.2 1.06 2.38 1.07.27 0 .34-3.07.33-15.07m34.15 14.02h.78v-3.69c0-3.62 0-3.68.6-3.77l.59-.08.07-13.82c.06-12.01.12-13.83.46-13.83s.4 1.82.46 13.83l.07 13.82.6.08.59.09V130.6H139l-.17 7.04c-.09 3.87-.09 10.12 0 13.89.16 6.4.2 6.84.65 6.84.47 0 .5-.62.56-13.82.06-12.92.1-13.83.53-13.9.43-.1.46.7.46 13.83v13.93l.6-.09.6-.08v-30.69l-3.45-.08c-4.95-.1-4.63-.3-4.63 2.86v2.64h-2.04l-.17 2.42c-.23 3.27-.22 30.25.02 30.49.1.1.34.12.55.04.2-.08.71-.14 1.13-.14m25.32-2.97-.07-3.23h-.8l-.79-.02-.07-2.05-.08-2.05h-2.64l.07 4.53.08 4.53 1.85.75c1.02.41 2 .75 2.19.76.26.01.32-.72.26-3.22m-20.44 1.89 3.77-1.1 1.92-.55v-3.62h-8.47v2.91c0 3.37-.16 3.23 2.78 2.36m14.68-8.03v-7.26l-.73-.08c-.65-.08-.73-.2-.8-1.21l-.09-1.13H149l-.07 1.13c-.08 1-.16 1.13-.81 1.2l-.73.1v8.16h-1.85v-13.71l-.83-.29a6 6 0 0 0-1.07-.29c-.12 0-.2 3.36-.16 7.48l.07 7.47 1 .08.99.08v4.47l1.92.02c1.05.01 2.63.24 3.5.5s1.74.49 1.92.5c.26.03.33-1.57.33-7.22m-66.87-23.3c.33-.07 1.13-.16 1.78-.2l1.2-.07v-12.16c0-11.38-.03-12.18-.47-12.26-.42-.08-.46.26-.46 4.29v4.37l-2.32.7c-5.05 1.52-5.53 1.71-5.84 2.3-.17.33-.6 3.63-.97 7.34-.6 6.15-.66 7.88-.66 19.59v12.84l1.45.72 1.46.71v-17.99c0-17.81 0-17.99.53-17.99.52 0 .53.18.53 18.22v18.22l1.52.69 1.52.69.07-14.94.07-14.93zM57.1 161.27l2.45-.84v-8.12h-3.44v5.02h-1.85v2.38c0 1.31.09 2.39.2 2.39.1 0 1.3-.38 2.64-.83m4.5-1.5c.24-.16.34-2.12.4-7.74l.06-7.53h3.71l.07 7.1.07 7.12 1.25-.2c.69-.1 1.3-.22 1.34-.26.2-.19.27-1.2.29-3.77l.02-2.71h2.12v-4.24c0-4.05-.03-4.23-.53-4.23-.43 0-.53-.18-.53-.93v-.92h-7.94v.92c0 .75-.1.93-.53.93-.52 0-.53.18-.53 8.34 0 4.58.1 8.33.2 8.33s.35-.1.53-.22m14.88-3.63v-3.04h-6.61v5.29l1.39.03c.76.01 2.04.17 2.84.36 2.58.59 2.38.8 2.38-2.64m1.06-13.2c0-4.85.08-9.2.17-9.65.16-.8.14-.83-.8-.83h-.96v2.78c0 2.6-.03 2.78-.53 2.78s-.52.18-.52 5.03v5.02h-2.65v3.71h5.29zm40.75-3.73c0-2.84-.1-5.17-.2-5.18s-.5-.07-.86-.14a4 4 0 0 0-1.26.02c-.59.15-.6.19-.6 5.13 0 2.74.09 5.06.18 5.15.1.1.75.18 1.46.18h1.28zm-24-6.55c2.47-.08 2.4.05 2.24-4.08l-.1-2.86h-5.8l-.07 3.65-.07 3.65.87-.15a30 30 0 0 1 2.93-.21m6.38-.13c.1-.11.67-.39 1.26-.61l1.05-.42-.01-5.58-.01-5.58.85-.3a11 11 0 0 1 5.22-.21l1.45.34.13 5.6.14 5.61 1.32.67c.73.37 1.35.68 1.39.68s.06-1.9.06-4.22c0-3.98-.02-4.22-.52-4.38-.51-.16-.53-.4-.53-5.42v-5.25l-.8-.27c-.75-.26-.8-.35-.8-1.74V110l-.98-.28c-1.07-.3-4.98-.32-6.29-.04-.76.16-.8.23-.87 1.68-.07 1.38-.15 1.56-.86 1.93l-.78.4v5.14c0 4.9-.02 5.14-.53 5.3-.5.16-.53.4-.53 4.38 0 3.9.1 4.55.64 4.02m8.83-6.52-.08-5.05-1.32-.19c-.73-.1-1.92-.1-2.65 0l-1.32.19-.07 5.05-.07 5.04h5.58zm-3.2-17.56c1.65-.08 3.04 0 3.56.17.47.17.93.21 1.03.1s.1-.86.02-1.65c-.12-1.07-.28-1.48-.6-1.54-.34-.06-.48.13-.54.77-.13 1.32-.7 1.26-.8-.08-.07-1.07-.13-1.15-.94-1.22-.84-.09-.86-.07-.86.99 0 .78-.1 1.07-.4 1.07-.28 0-.39-.3-.39-1.07 0-1.06-.02-1.08-.86-1-.8.08-.86.16-.94 1.23-.1 1.3-.7 1.43-.72.16 0-.59-.14-.77-.53-.77-.46 0-.53.21-.6 1.68-.07 1.54-.04 1.67.4 1.48.26-.1 1.69-.26 3.17-.32" style="fill:#36495b" transform="translate(-38.38 -76.1)"/><path d="M58.5 214.83a24 24 0 0 1-13.16-6.35c-1.92-1.88-3.3-3.76-3.07-4.16q.13-.25-.05-.1c-.3.27-1-.79-.77-1.16q.19-.3-.16-.1-.37.26-.18-.23.15-.42-.08-.3c-.24.15-.38-.2-.3-.72.02-.11-.1-.2-.26-.2s-.22-.18-.14-.4.02-.4-.14-.4q-.26-.01.08-.44c.32-.4.3-.43-.13-.26q-.54.22-.34-.22c.08-.22.03-.4-.12-.4-.16 0-.2-.23-.1-.56q.2-.58-.14-.36-.34.23-.14-.37.16-.54-.13-.56-.3 0-.12-.83.2-.84-.1-.64c-.2.12-.25-.19-.13-1.03q.17-1.21-.14-1.2c-.22 0-.3-12.39-.3-48.16s.08-48.15.3-48.15q.3.02.14-1.2c-.1-.72-.06-1.18.1-1.18.15 0 .2-.29.1-.66q-.15-.66.15-.67.29-.02.14-.53c-.1-.3-.05-.52.1-.52s.21-.18.13-.4c-.09-.22-.03-.4.13-.4s.22-.18.13-.4c-.08-.21-.02-.4.13-.4.16 0 .21-.19.12-.43q-.17-.45.14-.25.3.17.15-.22c-.1-.23-.02-.42.15-.42q.27-.02.15-.24c-.08-.13 0-.4.19-.6.18-.2.37-.53.42-.75s.2-.43.33-.48.24-.25.24-.46c0-.2.12-.38.27-.38q.23-.02.2-.24c-.04-.14.17-.44.46-.68s.35-.36.13-.26-.03-.17.4-.58c.45-.41.63-.64.4-.5-1 .62 2.94-3.2 4.36-4.2 2.02-1.46 4.3-2.6 4.68-2.37q.25.15.13-.08c-.2-.33 1.57-.9 2.14-.68q.44.18.2-.2-.25-.37.2-.18c.24.09.52.04.6-.11.1-.16.4-.22.68-.15.27.07.57.02.65-.11.2-.32-4.35-.29 49.14-.4 32.94-.08 47-.02 46.88.17q-.2.29 1.17.1c.94-.12 1.35-.09 1.35.13 0 .18.24.24.63.14.35-.09.7-.03.8.12s.37.2.6.1q.4-.14.27.1c-.1.16.15.27.59.27 1.04 0 4.82 1.93 7.02 3.6a24 24 0 0 1 6.2 7.34c1.3 2.43 2.18 4.88 1.97 5.43-.08.21 0 .39.16.39.19 0 .25.2.15.5-.09.28-.03.6.14.7s.23.56.12 1.2q-.18 1.03.11 1.04c.2 0 .29 13.63.29 48.15 0 35.77-.08 48.16-.3 48.16q-.3-.01-.14 1.2c.12.84.08 1.15-.12 1.03q-.3-.2-.1.68c.14.65.1.8-.15.65s-.28-.02-.15.52q.2.75-.12.54-.3-.2-.12.37c.1.33.06.56-.1.56-.15 0-.2.18-.12.4q.2.44-.34.22c-.43-.17-.45-.13-.13.26q.35.44.08.45c-.16 0-.22.17-.14.4.08.21.02.39-.14.39s-.27.09-.24.2c.12.45-.38 1.38-.64 1.22q-.26-.15-.1.13c.23.37-.47 1.43-.77 1.16q-.18-.14-.05.1c.23.4-1.15 2.28-3.07 4.16-2.74 2.7-5.98 4.51-10.37 5.83-1.85.56-1.89.56-50.14.6-26.56.01-48.58-.02-48.95-.08m34-40.04c11.85-5.6 13.87-6.2 20.5-6.17 2.13.01 3.42.18 5.55.73 3.95 1.03 6.02 1.11 10.59.44 6.37-.95 8.46-1.37 11.47-2.31 3.97-1.25 6.12-1.55 8.3-1.17 1.7.3 5.17 1.42 8.52 2.77 2.28.9 2.45.89 2.35-.27-.08-.9-.18-1-1.67-1.6a125 125 0 0 0-5.14-1.86l-3.54-1.21-2.94.13c-2.4.11-3.46.3-5.85 1.08-3.61 1.17-4.36 1.34-9.12 2.02-2.11.3-4.23.62-4.7.7l-.85.16-.07-10-.07-10.01-.66-.16c-.58-.13-.68-.32-.75-1.4l-.08-1.24h-3.67v-24.87h.73c.4 0 1.7-.08 2.9-.18l2.19-.17v23.2c0 20.82.04 23.22.41 23.36.23.09.53.05.66-.09.15-.14.25-9.54.25-23.18.01-19.64.07-22.94.39-22.94.2 0 .43.09.5.2.06.1.18 10.43.27 22.95.14 19.2.23 22.76.54 22.83.2.05.44-.03.52-.17.09-.13.16-10.88.17-23.89v-23.63l-1.4-.49c-1.17-.4-1.97-.46-5.14-.36-2.06.07-3.88.2-4.03.3-.2.12-.29 4.38-.29 13.65v13.48h-2.38v1.32c0 1.23-.04 1.32-.66 1.32h-.66v5.54l-1.92.07-1.92.08-.07 6.39-.07 6.38-2.04.18c-2.47.22-4.92.75-7.13 1.54-1.92.68-1.9.68-6.67-1.57-4.1-1.93-5.21-2.22-8.23-2.14l-2.5.07-3.45-1.61c-6.55-3.07-6.86-3.15-11.5-3.15-3.5 0-4.11.08-6.89.85-3.46.95-9.25 2.91-9.68 3.27-.3.25-.17 1.83.16 1.83.11 0 1.91-.6 4-1.33 7.8-2.71 11.89-3.37 15.8-2.54 1.16.24 3.7 1.22 6.34 2.44l4.42 2.03 3.44.18 3.44.17 3.17 1.48c1.75.8 3.34 1.52 3.53 1.58.2.06-.28.4-1.06.74l-4.94 2.3c-3 1.42-3.5 1.75-3.34 2.14.11.26.2.66.22.9.02.6.41.49 3.76-1.1m29.36-6.75c-.15-.05-1.25-.3-2.45-.57l-2.18-.47v-17.63l3.5.07 3.51.08.07 9.32.07 9.33-1.13-.02a8 8 0 0 1-1.4-.11m-3.3-20.66c0-.68 0-.68 2.1-.6 1.5.05 2.15.17 2.25.43.27.7-.16.85-2.26.85-2.08 0-2.1 0-2.1-.68m-16.3 19.7.68-.31.07-16.17c.06-15.14.1-16.16.53-16.24.43-.09.46.81.46 15.89 0 8.79.07 16.05.15 16.14.09.08.5.03.93-.12l.77-.27v-15.98c0-15.8 0-15.98.53-15.98.52 0 .53.18.53 15.88 0 14.94.03 15.87.46 15.87q1.06-.02 1.05-.93c-.01-.29 0-2.57.03-5.07l.05-4.55 1.12-.08 1.13-.09-.03-1.24-.03-1.24 1.43-.08 1.43-.08-.02-8.96c0-5-.13-9.16-.27-9.42-.36-.68-2.74-1.62-4.85-1.91-2.01-.28-4.44.01-6.28.75l-1.03.41-.07 16.93c-.04 9.31-.02 16.98.04 17.04.18.18.48.13 1.2-.2m-2.76-15.41v-15.15l-.92-.82c-.51-.45-.93-.76-.93-.69s-.37-.17-.81-.55-.96-.68-1.13-.68c-.22 0-7.7.68-8.58.78-.04 0-.04 6.47 0 14.36l.07 14.36h1.47l.06-13.63.06-13.63 2.11-.18c1.17-.1 2.5-.24 2.98-.31l.86-.13v29.29l2.18 1.17c1.2.65 2.27 1.12 2.38 1.07s.2-6.93.2-15.26m59.53 11.21v-3.44h-.94c-.95 0-.95 0-.9-1.12.11-2.92.14-2.85-1.33-2.85h-1.33l.01 4.57v4.56l2.05.83c1.13.46 2.14.85 2.24.86s.2-1.52.2-3.41m-24.51 2.72c.12-.07.16-.36.09-.63-.08-.28 0-.5.17-.5q.31-.01-.03-.22c-.24-.16-.3-.95-.24-2.97.09-2.56.13-2.76.67-2.9l.57-.13.02-13.82c.01-11.8.07-13.83.4-13.83.32 0 .37 2.04.37 13.9v13.92l.73-.09.73-.08.07-13.82c.04-8.83.16-13.83.33-13.83.16 0 .28 5 .32 13.83l.07 13.82.73.08.73.09v-13.93c0-11.03.07-13.91.33-13.82s.35 3.15.41 13.84l.08 13.74.65.08.64.09v-31h-8.2v5.53l-1.12.08-1.13.08-.07 16.5-.06 16.5 1.26-.18a8 8 0 0 0 1.48-.33m5.6-1.24 3.96-1.16.08-1.88.08-1.88h-8.46l-.08 2.93c-.05 1.62-.03 2.99.03 3.05.17.16.17.16 4.39-1.06m13.1-7.83v-7.4h-.67c-.56 0-.68-.16-.82-1.07l-.17-1.06h-2.58v1.06c0 1-.05 1.06-.8 1.06h-.79v4.09c0 2.58-.1 4.15-.28 4.26-.15.09-.57.1-.92 0l-.65-.16v-13.49l-.68-.26c-1.5-.57-1.44-.9-1.44 7.28v7.54h1.85l.03 1.66c.05 3.16-.19 2.86 2.36 2.98 1.23.06 2.84.28 3.57.5.73.2 1.47.38 1.65.4.26.01.33-1.63.33-7.39m-67.27-8.08c.04-8.13.14-14.84.22-14.92s.82-.2 1.64-.28l1.5-.14v-12.3c0-10.76-.04-12.3-.4-12.3-.32 0-.41.71-.52 4.33l-.13 4.33-.93.34c-.5.19-2 .66-3.3 1.06-2.85.87-3.72 1.28-3.95 1.87-.1.25-.48 3.32-.85 6.82-.6 5.71-.7 7.76-.8 19.48-.06 7.2-.02 13.22.1 13.37.3.4 2.95 1.45 3.09 1.22.07-.1.1-8.17.08-17.9-.03-16.49 0-17.73.42-17.8.42-.09.45 1.12.45 18.2v18.28l1.39.65c.76.35 1.5.6 1.65.56.17-.06.3-5.31.34-14.87m-26.6 12.08c.12-.11.18-2.03.14-4.26l-.07-4.06-1 .02c-2.58.06-2.31-.25-2.31 2.6v2.53l-.86-.08-.86-.09-.08 2.56-.07 2.55 2.46-.79c1.35-.43 2.55-.87 2.66-.98m2.52-8.3.07-7.6h3.95l.07 7.07c.06 6.1.13 7.07.47 7.04l1.39-.21.99-.17v-6.33h.77c1.5 0 1.48.07 1.43-4.43-.05-3.98-.08-4.17-.6-4.25-.42-.07-.54-.28-.54-.98v-.9l-3.97-.07-3.97-.08v.99c0 .81-.1 1-.53 1-.52 0-.53.17-.53 8.34 0 7.82.03 8.35.47 8.27.42-.08.46-.7.53-7.7m14.66 3.9-.08-3.04h-6.59v5.2l2.68.3c1.47.18 2.86.43 3.09.56.87.48.99.08.9-3.02m1.07-14.04.07-9.81-.92.05-.93.06-.13 2.88c-.08 1.78-.23 2.82-.4 2.74-.17-.09-.29 1.68-.33 4.96l-.08 5.1h-2.63v3.98l2.63-.07 2.64-.08zm40.69-3.04v-5.3l-1.4.08-1.38.08-.07 5.22-.07 5.23h2.92zm-23.15-6.44 1.32-.1v-6.8l-2.98-.08-2.97-.07V133l1.65-.15zm8.07-6.82v-5.52l.7-.27c.93-.35 4.8-.35 5.73 0l.71.27v11.05l1.59.79c.87.43 1.65.72 1.72.65s.13-2.01.13-4.32v-4.18l-.66-.17-.66-.16v-10.54l-.67-.3c-.56-.26-.66-.48-.66-1.52 0-.66-.1-1.33-.2-1.48-.46-.64-1.71-.88-4.34-.83-3.64.06-4.19.37-4.19 2.4 0 1.3-.06 1.44-.66 1.59l-.66.16v5.17c0 4.67-.04 5.17-.46 5.33-.26.1-.56.3-.67.45-.2.3-.23 7.7-.03 8.22q.14.3 1.7-.48l1.58-.78zm6.35.31c0-3.66-.1-5.05-.33-5.2-.5-.3-2.31-.41-3.84-.22l-1.39.17v5.1a65 65 0 0 0 .1 5.2c.07.06 1.32.07 2.79.03l2.67-.09zm-2.78-17.6c1.3 0 2.83.1 3.37.22l1 .2v-1.43c0-1.4-.25-1.89-1.05-2.07-.38-.09-.45.05-.51 1.1-.02.3-.17.53-.33.53-.18 0-.25-.36-.18-.92.1-.81.02-.94-.67-1.18-1.02-.36-1.24-.18-1.24 1.06 0 .78-.1 1.04-.42 1.04-.34 0-.4-.22-.32-1.05.1-1.19-.2-1.46-1.24-1.06-.53.2-.66.43-.66 1.18 0 1.16-.47 1.24-.58.1-.2-1.99-1.54-.87-1.54 1.28v1.46l1-.22c.54-.13 2.06-.23 3.37-.23" style="fill:#022449" transform="translate(-38.38 -76.1)"/><path d="M58.89 214.87c-.15-.05-.83-.17-1.53-.26-.7-.1-1.2-.28-1.1-.42.09-.15.34-.15.64.02.33.17 17.33.26 49.75.26 32.4 0 49.41-.09 49.74-.26.28-.15.56-.17.64-.03.08.13-.18.33-.58.45-.68.2-97 .44-97.56.24m-5.03-1.16a22 22 0 0 1-8.68-5.4c-1.64-1.63-3.57-4.16-3.19-4.16.11 0-.02-.16-.29-.35-.3-.23-.4-.49-.27-.7q.19-.33-.06-.18c-.14.09-.4-.13-.56-.48-.16-.36-.19-.71-.06-.79.28-.17 1.21 1.2 1.12 1.65-.04.18.08.3.26.26s.34.08.34.25c0 .18.16.47.34.65s.34.6.34.94.14.6.33.6c.18 0 .75.54 1.25 1.19.51.65 1.08 1.13 1.26 1.07.18-.07.31-.03.3.07-.08.5.06.85.31.85.15 0 .2-.15.08-.33q-.2-.33.25.03c.25.2.45.59.45.86q-.01.51.63.5c.7 0 1.33.58 1.02.94-.1.13.04.06.32-.15.28-.22.43-.26.33-.1q-.16.3.77.49c.69.13.9.28.79.57q-.12.35.11.23c.14-.09.26-.05.26.07 0 .22 1.8.85 3.5 1.24.4.09.74.28.74.42 0 .37-.47.31-1.99-.24m103.59.26c0-.15.32-.35.72-.44 1.68-.37 3.39-1 3.58-1.33a.5.5 0 0 1 .6-.2c.21.08.45-.04.55-.28.08-.23.33-.42.54-.42q.37-.01.19-.33c-.13-.2 0-.19.31.06.29.2.43.28.32.15-.3-.36.33-.94 1.02-.94q.64.01.63-.5c0-.27.2-.66.45-.86q.45-.36.25-.03c-.11.18-.07.33.08.33.25 0 .39-.36.31-.85-.01-.1.12-.14.3-.07.18.06.75-.42 1.26-1.07.5-.65 1.07-1.18 1.25-1.18.19 0 .34-.22.34-.48s.12-.6.28-.76c.15-.15.31-.5.35-.78.04-.27.16-.44.26-.36.1.07.42-.39.7-1.02.28-.62.63-1.06.78-.97.59.36-1.98 4.25-4.4 6.67-.93.92-2.52 2.22-3.54 2.88-2.77 1.79-7.13 3.5-7.13 2.78M39.82 199.73c.08-.18.02-.34-.13-.34s-.19-.32-.1-.73c.12-.56.1-.63-.12-.33-.16.22-.29.27-.29.12s.15-.49.34-.75c.3-.41.35-.35.4.54.04.55.24 1.2.45 1.42.33.36.3.41-.15.41q-.5-.01-.4-.34m133.11-.08c.22-.24.41-.94.43-1.56.05-1.07.07-1.1.4-.5.4.74.46 1.3.06.74-.21-.3-.24-.23-.12.33.09.41.05.73-.1.73s-.2.16-.13.34c.08.2-.08.34-.4.34-.46 0-.48-.04-.14-.42M38.67 195.8q.02-.47.16-.16c.07.19.07.42-.02.5-.1.1-.15-.06-.14-.34m135.73 0q.02-.47.16-.16c.08.19.07.42-.02.5-.09.1-.15-.06-.14-.34M38.38 145.68c0-31.92.1-48.15.27-48.15s.26 16.23.26 48.15c0 31.93-.09 48.16-.26 48.16s-.27-16.23-.27-48.16m136 0c0-31.92.09-48.15.26-48.15s.27 16.23.27 48.15c0 31.93-.1 48.16-.27 48.16s-.26-16.23-.26-48.16m-85.9 30.25c0-.2.08-.35.19-.35s.25.16.33.35c.07.2-.01.36-.2.36-.18 0-.32-.16-.32-.36m2.55-.3c0-.2 1.63-.9 1.77-.75.04.04-.33.27-.84.52-.51.24-.93.34-.93.23m-3-.76c-.32-.32-.17-.51.89-1.1.77-.45 1.01-.5.9-.2-.08.2-.5.51-.94.66s-.72.4-.63.55c.2.3.06.36-.21.1m7.5-1.38c0-.25 1.1-.6 1.3-.41q.08.1-.21.12c-.18 0-.25.12-.16.26s-.08.27-.38.27-.55-.1-.55-.24m-3.58-.94c.28-.22.7-.4.92-.39.36.02.36.04.02.17-.22.08-.64.26-.93.39-.52.24-.52.24-.01-.17m6.5-.51c0-.06.23-.16.52-.24s.47-.03.38.1c-.14.23-.9.35-.9.14m-4.3-.48c.17-.22.27-.44.21-.5s.25-.12.67-.14c.43-.01.75 0 .7.03-.03.04-.48.28-1 .54-.7.36-.84.38-.59.07m7.2-.71c.51-.29.97-.4 1.02-.26.13.36.05.4-1.02.6l-.92.17zm2-.73c.54-.4 1.56-.5 1.33-.13-.08.13-.52.3-.98.36-.76.11-.8.09-.35-.23m18.97.25c.26-.07.67-.07.93 0 .25.07.04.12-.47.12-.5 0-.71-.05-.46-.12m-25.3-.5q-.2-.47.25-.27c.23.09.56.16.73.16.18 0 .14.12-.09.26-.55.36-.7.33-.9-.16m30.13.3c.54-.27 4.9-.86 4.9-.67 0 .1-.36.26-.8.35-1.07.22-4.43.47-4.1.31m-31.24-.65c.08-.13-.3-.42-.84-.65-.55-.22-.84-.41-.65-.42.58-.02 1.93.79 1.77 1.06-.09.13-.22.25-.3.25q-.1-.02.02-.24m61.67-.03c-.5-.21-.5-.22.06-.24.33-.01.6.1.6.24q0 .25-.07.25zm2.58-.13c-.18-.2-.33-.61-.33-.9q.01-.53-1.13-1.07c-.62-.3-.84-.46-.5-.38.35.09.82.19 1.05.22s.46.2.52.37.24.3.4.3c.18 0 .33.42.34.93v.92zm-52.72-.4c.52-.33.87-.33.66 0-.09.15-.36.27-.61.27-.39 0-.4-.04-.05-.26m28.73-.03c.08-.13.57-.23 1.1-.23.52 0 .88.07.8.15-.25.25-2.05.32-1.9.08m19.5-.05a4 4 0 0 1-1-.48c-.3-.3 1.32.11 1.84.47.63.43.32.43-.83.01m-44.44-.25a8 8 0 0 1 2.9 0c.67.2.22.25-2.06.25h-2.91zm-10.04-.33a3 3 0 0 1 1.32-.37c.42.01.32.1-.36.37-1.26.49-1.9.49-.96 0m-2.09-.13q-.5-.22-.13-.23c.22 0 .64.1.93.23q.5.22.13.23c-.22 0-.63-.1-.93-.23m23.49-.19c.4-.06 1-.06 1.32 0 .33.07 0 .12-.73.12s-1-.06-.59-.12m3.57.02c.18-.08.48-.08.66 0s.03.13-.33.13-.51-.06-.33-.13m-34.07-.37c0-.16-.12-.21-.26-.12s-.27.04-.27-.12c0-.35.04-.35 1.1.11.88.38.88.39.16.4-.4 0-.73-.12-.73-.27m36.58-.1c.21-.16.35-.52.3-.81-.07-.53-.06-.53.31-.02q.4.55.39.13c0-.32.04-.32.26.02.4.63.32.73-.69.85-.72.08-.86.04-.57-.17m11.26.2c.2-.08.42-.07.51.02.09.08-.07.15-.35.14q-.46-.03-.16-.16m-42.55-.35q-.35-.25-.08-.26c.18 0 .4.11.48.26.2.33.11.33-.4 0m7.15-.27c.35-.22.35-.25 0-.27-.24 0-.14-.16.26-.39.9-.51 1.65-.5.8.02-.55.33-.57.38-.1.25.3-.08.78-.06 1.05.04.45.18.44.21-.16.38-.36.1-1.02.2-1.45.2-.6.02-.7-.03-.4-.23m14.02 0c0-.31.46-.31 1.2 0 .44.2.38.23-.34.25-.47 0-.86-.1-.86-.25m12.57.02c1.04-.32 3.39-.52 3.12-.26-.12.1-1.04.26-2.06.35-1.34.1-1.63.08-1.06-.1m11.24-.02q-.36-.24-.08-.26c.18 0 .4.12.48.26.2.33.11.33-.4 0m-51.85-.26c-.22-.14-.28-.26-.14-.26s.45.12.66.26.28.26.14.26-.45-.12-.66-.26m7.8 0q-.12-.24.25-.1c.46.17.54.36.16.36-.13 0-.32-.11-.4-.26m18.92-.2c0-.26.1-.35.2-.2s.3.36.44.46q.18.18-.2.2a.45.45 0 0 1-.44-.46m-33.34-.22-.66-.4.66.18c.36.1.84.27 1.06.4.35.2.35.22 0 .22-.22 0-.7-.18-1.06-.4m23.75.23c.33-.06.8-.06 1.06 0 .25.07-.02.12-.6.12s-.79-.06-.46-.12m18.32-.81c0-.6.13-1.17.3-1.27q.3-.2.16.92c-.17 1.48-.46 1.7-.46.35m-31.88.02c-.73-.38-1.86-.84-2.52-1.02q-1.23-.34-.53-.36c.37 0 1.3.28 2.08.64s1.5.62 1.59.57.38.13.63.4c.62.65.33.6-1.25-.23m16.8.52c.22-.08.48-.28.59-.44q.19-.26.2.17 0 .47-.6.44t-.2-.17m26.46-.17c0-.06.18-.18.4-.27q.38-.12.26.1c-.16.26-.66.38-.66.17m-34.27-.48a3 3 0 0 1-.08-1.06l.1-.61.33.6q.35.59.08 1.06c-.24.42-.27.42-.43.01m14.23-.88c0-.72.06-.99.12-.59s.06 1 0 1.33c-.07.32-.12 0-.12-.74m11.19.7c-.18-.56.06-1.36.4-1.36.32 0 .31 1.52 0 1.71-.14.08-.32-.07-.4-.34m10.17.23c.22-.14.58-.25.8-.24q.39 0-.14.24c-.73.31-1.14.31-.66 0m15.74 0q-.5-.22-.13-.23c.22 0 .64.1.93.23q.5.22.13.23c-.22 0-.64-.1-.93-.23m-73.03-.27c-.09-.15-.27-.2-.4-.12-.28.17-1.35-.34-1.64-.77q-.59-.9.6-.3c.44.24.73.54.65.68-.09.14.06.23.32.2.92-.07 1.43.05 1.27.32-.2.34-.58.33-.8 0m-.92-.63c0-.05-.18-.17-.4-.26q-.38-.13-.26.1c.16.26.66.38.66.16m75.94.62c0-.15.12-.2.26-.12.15.1.27.22.27.28s-.12.12-.27.12c-.14 0-.26-.13-.26-.28m-103.4-.91q0-.94.38-.93t.18.33c-.11.19-.17.53-.13.77.04.25-.04.51-.18.6s-.25-.26-.25-.77m53.78-14.82c0-8.73.03-12.26.07-7.85s.04 11.56 0 15.88c-.04 4.31-.07.7-.07-8.03m1.6 15.22c-.1-.29-.05-.73.1-.99.23-.38.28-.29.28.52q0 1.66-.38.47m28.83.26c.3-.12.71-.23.93-.23q.37.01-.13.23c-.3.13-.7.23-.93.23q-.37-.01.13-.23m-31.33-.42q.03-.46.16-.16c.08.2.07.42-.02.5-.09.1-.15-.06-.14-.34m24.32.02c0-.21.05-.4.1-.4s.18.19.26.4.04.4-.1.4-.26-.18-.26-.4m10.46.14c-.1-.15.01-.2.25-.1.45.17.54.36.16.36-.14 0-.32-.12-.41-.26m18.38-.27c0-.5.07-.56.32-.32s.25.4 0 .64c-.25.25-.32.18-.32-.32m-101.6.03c0-.13.33-.3.73-.37.67-.13.69-.11.2.23-.57.43-.93.48-.93.14m66.78-2.54c0-1.6.04-2.22.1-1.38.05.84.05 2.15 0 2.9-.06.77-.1.08-.1-1.52m10.88 2.51c-.1-.14-.03-.26.13-.26s.22-.12.13-.27c-.09-.14-.03-.26.12-.26s.28.24.28.53c0 .56-.39.7-.66.26m6.22 0c-.22-.14-.28-.25-.14-.25s.45.11.66.25.28.26.14.26-.45-.12-.66-.26m-55.34-.23c.33-.21 1.36-.11 1.36.13 0 .06-.39.1-.86.1q-.86 0-.5-.23m56.92-.03c.22-.14.58-.25.8-.24q.39 0-.14.24c-.72.31-1.14.31-.66 0m8.16.08c.19-.08.41-.07.5.02s-.07.15-.34.14q-.48-.02-.16-.16m-1.06-.26c.19-.08.42-.07.5.02.1.09-.06.15-.34.14q-.47-.03-.16-.16m4.2-2q.25-4.8.31-.4c.02 1.42-.06 2.58-.19 2.58-.12 0-.17-.99-.11-2.19m-70.56 1.65c-.35-.22-.34-.26.05-.26.24 0 .52.11.6.26.22.33-.14.33-.65 0m10.71-14.16c0-7.93.1-14.42.2-14.42s.2 6.5.2 14.42-.09 14.42-.2 14.42c-.1 0-.2-6.49-.2-14.42m50.63 14.2c.38-.25 3.64-.23 3.89.01.07.08-.85.16-2.06.18-1.36.02-2.05-.05-1.83-.2m-60-.55q-.4-.24.34-.2c.38.03.7.14.7.25 0 .26-.58.24-1.03-.05m2.36.14c0-.05.35-.15.78-.22.43-.06.72-.01.65.1-.13.22-1.43.32-1.43.12m15.73-6.25c0-3.56.03-5.02.08-3.24.04 1.78.04 4.7 0 6.48-.05 1.79-.08.33-.08-3.24m22.9-.04c0-3.52.08-6.31.19-6.2.29.28.35 12.6.06 12.6-.15 0-.25-2.57-.25-6.4m2.65-14.95c0-11.74.04-21.3.1-21.23.24.29.41 42.57.16 42.57-.18 0-.26-7.08-.26-21.34m14.48 21.17c.18-.08.48-.08.66 0s.04.13-.33.13c-.36 0-.51-.06-.33-.13m6.55-.1q-.56-.26.53-.08c.58.09 1.1.2 1.17.26.23.2-1.2.05-1.7-.18m-94.58-.4q.33-.4.02-.38c-.73 0-.18-.5.96-.88 1.03-.34 1.17-.34.75-.03-.29.2-.6.38-.7.38s-.25.17-.34.38c-.12.32-.02.34.54.13.38-.15.74-.21.8-.15s-.45.3-1.12.53c-1.06.35-1.19.36-.91.03m26.65-.11c-.36-.29-.75-.44-.87-.33q-.17.14 0-.19.29-.42-.28-.18-.56.23-.2-.12c.24-.24.53-.14 1.26.41.87.66 1.11.93.85.93-.05 0-.4-.24-.76-.52m-18.06-.01c.1-.15.28-.27.43-.27s.19.12.1.27-.28.26-.43.26q-.22-.02-.1-.26m81.19-.2c.1-.16 0-.46-.21-.67-.34-.34-.3-.39.23-.39.47 0 .58.12.48.5-.07.28-.25.58-.4.67q-.24.13-.1-.11m-85.95-.94c.43-.2.84-.33.9-.28q.32.24-.9.48l-.8.17zm-4.93-1.04c-.02-.62-.05-1.44-.08-1.83s.04-.92.15-1.2c.1-.26.2.56.2 1.84.03 2.31-.2 3.3-.27 1.19m14.78.93a8 8 0 0 1 1.72 0c.48.06.09.1-.86.1-.94 0-1.33-.04-.86-.1m9.33-.34q-.36-.24-.08-.26c.17 0 .39.12.48.26.2.33.1.33-.4 0m3.84-.15c-.17-.27-.24-6.67-.2-18 .06-15.33.12-17.57.47-17.57s.39 2.25.39 18c0 9.89-.1 17.99-.2 17.99s-.32-.2-.46-.42m.32-17.64c-.05-.62-.1-.11-.1 1.12s.05 1.75.1 1.13.06-1.63 0-2.25m62.06 17.26c.02-.29.13-.53.23-.53s.17.24.15.53-.12.53-.23.53c-.1 0-.17-.24-.15-.53m-82.42.1c.18-.08.28-.23.21-.33-.06-.1.09-.19.33-.2.25 0 1.1-.08 1.9-.18l1.46-.17-1.85.52c-1.71.47-2.84.67-2.05.35m-2.32-1.16c0-.14.24-.26.52-.26.51 0 .53-.22.6-6.81l.08-6.82.06 6.92c.06 6.1.01 6.94-.36 7.08q-.9.35-.9-.1m9.07-.2c.84-.04 2.15-.04 2.91.01s.07.1-1.53.1-2.22-.05-1.38-.1m9.54-2.04c0-1.31.05-1.88.1-1.27s.06 1.69 0 2.38c-.05.7-.1.2-.1-1.11M62 152.57c-.03-3.84.03-6.88.14-6.74.1.14.13 3.28.05 7l-.14 6.74zm13.04 6.6c-.2-.33.14-.33.66 0 .34.23.33.26-.05.27-.25 0-.52-.12-.61-.26m42.3-1.85c0-1.23.04-1.74.1-1.12.05.62.05 1.63 0 2.25s-.1.11-.1-1.13m19.67 1.96c-.19-.19.05-.9.3-.9.1 0 .2.24.23.53.04.52-.2.7-.53.37m2.08-.26q-.32-.86.52-.54c.23.1.38.3.32.48-.17.5-.65.54-.84.06m2.4.24c-.31-.31-.18-.88.2-.88.22 0 .37.23.35.53q-.07.82-.55.35m15.77-.88c0-.65.05-.92.12-.6s.06.87 0 1.2c-.07.32-.12.06-.12-.6m-22.66.58a.33.33 0 0 1 .11-.45c.4-.25.54-.05.27.37q-.21.35-.38.08m10.32-.18c-.08-.22-.03-.4.1-.4.15 0 .26.18.26.4s-.04.4-.1.4-.17-.18-.26-.4m-68.25-.05c-.26-.26-.21-1.09.08-1.27.14-.09.23.19.2.65-.03.44-.07.8-.08.8zm-7.06-.35c0-.14-.16-.26-.35-.26a.36.36 0 0 1-.35-.37c0-.2.14-.32.32-.25.24.09.32-.38.3-1.75 0-1.02.07-1.94.17-2.04s.18.97.18 2.38c0 1.4-.06 2.56-.13 2.56s-.14-.12-.14-.27m-4.01-6.13c.1-6.65 0-7.25-1.25-7.44q-.65-.1.44-.15l1.12-.04v6.88c0 3.79-.09 6.88-.2 6.88-.1 0-.16-2.76-.11-6.13m88.62 5.52c-.06-.34-.03-.85.07-1.13q.18-.5.2.62c.02 1.24-.09 1.45-.27.5m-18.46-.9c0-.56.12-1.18.26-1.4.19-.28.26 0 .26 1 0 .76-.11 1.38-.26 1.38-.14 0-.26-.44-.26-.99m4.82.22a4 4 0 0 1 .19-1.4c.2-.5.25-.37.26.77.02 1.45-.35 1.96-.45.63m2.53-5.52c.1-8.8.23-9.16.28-.8.02 3.9-.05 7.08-.16 7.08s-.16-2.82-.12-6.28m2.77 5.82c-.6-.2-.35-.53.3-.4.54.1.67-.02.9-.9l.29-1.02-.05 1.2c-.05 1.2-.4 1.48-1.44 1.12m-90.9-.24c-.28-.27.07-.6.48-.45.3.11.4-.29.46-2.06l.1-2.21.05 2.45c.04 2.21 0 2.44-.44 2.44-.26 0-.56-.07-.65-.17m33.76-.88c0-.66.05-.93.11-.6s.06.86 0 1.2c-.06.32-.11.05-.11-.6m-12.25-.67c0-.21.12-.4.27-.4.14 0 .26.19.26.4s-.12.4-.26.4-.27-.18-.27-.4m78.65-.32c.4-.06 1-.06 1.33 0 .32.07 0 .12-.73.12s-1-.06-.6-.12m-30.97-2.62c-.04-2.17-.13-2.72-.47-2.85-.7-.27-4.34-.18-4.34.1 0 .17-.22.14-.53-.06-.43-.26-.64-.26-1.06 0-.44.28-.53.27-.53-.06 0-.34.55-.4 3.45-.4 2.61 0 3.48.08 3.58.35.07.19.1 1.53.05 2.97l-.1 2.63zm21.49-1.69c0-2.4.04-3.38.09-2.18s.04 3.17 0 4.37c-.05 1.2-.1.21-.1-2.19m-69.17 3.18c0-.3.12-.53.27-.53.14 0 .26.24.26.53s-.12.53-.26.53-.27-.24-.27-.53m1.58-.46-.1-1.2a.8.8 0 0 0-.29-.52c-.14-.1-.02-.2.28-.2.47 0 .53.13.45.99q-.22 2.33-.34.93m-18.37.13a1.3 1.3 0 0 1 0-.93c.2-.44.21-.44.32 0 .06.26.06.67 0 .93-.1.44-.12.44-.32 0m57.62-1.26c0-.94.05-1.33.11-.86s.06 1.25 0 1.72-.1.09-.1-.86m-4.85.8c.32-.2.27-.3-.26-.5-.64-.26-.63-.27.22-.28.48-.01.8.09.72.22-.08.14.18.36.58.51.68.25.65.27-.46.28q-1.22.03-.8-.23m2.67-.2c.01-.26.12-.7.25-1 .18-.42.23-.33.24.47.01.54-.1.99-.24.99-.15 0-.26-.2-.25-.46m-44.18-.19c.28-.27 1.64-.36 2.18-.15.44.18.24.24-.86.25-.79.01-1.38-.03-1.32-.1m4.16-.06c.2-.08.42-.07.5.02.1.09-.06.15-.34.14q-.46-.03-.16-.16m-18.34-.88c-.09-.14.02-.26.25-.26s.41.12.41.26-.1.27-.25.27c-.13 0-.32-.12-.4-.27m.93.02c0-.14.12-.33.26-.41.15-.1.27-.05.27.1s.2.2.44.1q.44-.16.25.15c-.23.37-1.22.41-1.22.06m13.48-.7c-.19-.22-.23-.39-.1-.36.71.14.88-.11.97-1.4l.1-1.4.05 1.53c.03.92-.06 1.52-.23 1.52-.15 0-.2.12-.12.26.27.43-.3.3-.67-.14m6.45-1.24c-.01-1.22 0-1.25.1-.26q.1 1.12.49 1.12c.2 0 .38.12.38.27 0 .14-.22.26-.48.26-.4 0-.49-.22-.5-1.39m35.93-7c.04-5.91-.03-8.57-.24-8.97-.4-.75-2.67-1.68-4.78-1.98-1.91-.27-2.2-.41-1.62-.78.49-.3 1.77-.32 1.95-.02.08.12-.18.18-.58.13-.7-.1-.7-.08.08.18a5 5 0 0 0 1.85.15c.66-.08 1.3.02 1.72.26.6.36.61.38.06.23-.88-.23-.72.05.21.37.48.17.74.18.65.03s-.1-.26-.02-.26.35.45.6 1c.4.85.47 2.15.56 9.52.07 6.27.01 8.53-.2 8.53-.23 0-.3-2.25-.24-8.4m12.6-2.46c.05-5.45.13-10.16.17-10.45s.1 3.88.1 9.26-.08 10.1-.18 10.46-.14-3.8-.1-9.27m-10.73 8.87c0-.44.06-.58.13-.33.07.26.06.62-.01.8s-.13-.04-.12-.47m32.97-.58c.2-.08.42-.07.5.02.1.09-.06.15-.34.14q-.46-.02-.16-.16m3.45-.41c-.03-.33-.03-.8 0-1.05.02-.35-.24-.47-1.22-.55l-1.25-.1 1.38-.04 1.4-.05v1.04c0 .58.14 1.1.32 1.17q.3.13-.13.15-.46 0-.5-.57m-15.74-1.79c0-1.24.04-1.74.1-1.12.05.61.05 1.63 0 2.24s-.1.12-.1-1.12m-20.85 1.25c.1-.27.25-.41.33-.33s0 .3-.18.47q-.38.4-.15-.14m-42.75-.2q-.44-.27.4-.1c1.5.28 1.7-.26 1.79-5.2l.08-4.35.06 4.96.06 4.96h-1a3 3 0 0 1-1.39-.27m43.75-.12c.22-.22.47-.4.55-.4s.15.18.15.4-.23.4-.54.4c-.5 0-.5-.05-.16-.4m2.3-.04q-.02-.45.32-.15c.18.15.63.32 1 .39.48.09.4.13-.34.16-.75.02-.99-.07-.99-.4m3.66.21c.21-.14.28-.39.17-.58q-.2-.31.16-.2c.55.18.44.85-.16.95q-.59.1-.17-.17m2.28-.04c-.2-.34.41-.34.93 0 .32.2.29.26-.18.26-.32 0-.66-.12-.75-.26m-7.88-1.32c-.07-.3-.03-.53.1-.53.14 0 .24.23.24.53 0 .29-.04.52-.1.52-.05 0-.16-.23-.24-.52m-52.84 0c0-.15.12-.27.27-.27.14 0 .26.12.26.27 0 .14-.12.26-.26.26a.3.3 0 0 1-.27-.26m13.85-1.86c0-1.23.05-1.74.1-1.12s.06 1.63 0 2.25-.1.11-.1-1.13m46.74 1.72c0-.21.12-.4.27-.4.14 0 .26.19.26.4s-.12.4-.26.4-.27-.18-.27-.4m16.47-.4c0-.5.05-.71.12-.46.07.26.07.67 0 .93-.07.25-.12.05-.12-.46m4.72-.41c-.01-.76.09-1.08.35-1.08.36 0 .34.14-.2 1.76-.07.22-.14-.09-.15-.68m-74.5-.38c.09-.14.21-.26.28-.26.06 0 .12.12.12.26s-.13.27-.28.27-.21-.12-.12-.27m49.6-.25q0-.54.4-.37c.22.08.34.25.26.37-.07.12.43.27 1.13.32 1.26.1 1.25.1-.26.15-1.35.04-1.52-.01-1.52-.47m-58.73-.01c0-.15.19-.27.41-.27.23 0 .34.12.25.27-.09.14-.27.26-.41.26s-.25-.12-.25-.26m55.03.02c0-.14-.2-.3-.46-.37-.25-.06-.06-.13.43-.15.77-.03.85.03.56.37q-.55.67-.53.15m-56.45-.62c-.21-.8-.2-.99.04-.99.12 0 .24.36.27.8.07.93-.08 1.03-.31.2m84.5-.61c-.52-.3-.56-.37-.18-.38.27 0 .66.18.88.4.48.48.2.47-.7-.02m-29.79-4.74c0-2.77.04-3.86.09-2.44.05 1.43.05 3.69 0 5.03s-.09.17-.09-2.6m3.15 3.17c0-1.02.05-1.4.11-.85a10 10 0 0 1 0 1.85c-.06.47-.1.02-.1-1m-57.1.66c.02-.3.18-.68.35-.85.24-.24.31-.12.31.53 0 .53-.13.85-.35.85-.2 0-.34-.24-.32-.53m8.6-.28c0-.48.1-.74.27-.64.15.09.2.28.11.41-.08.14-.02.25.13.25.16 0 .28.18.28.4a.4.4 0 0 1-.4.4q-.4 0-.4-.82m73.82.4c0-.23.12-.34.26-.25s.27.28.27.41c0 .14-.12.25-.27.25-.14 0-.26-.18-.26-.41m-3.05-1.44c.1-.58.08-1.06-.04-1.06s-.22-2.2-.22-4.9c0-2.69.1-4.86.21-4.82.33.11.47 11.84.14 11.84-.16 0-.2-.4-.09-1.06m1.72-6.07c0-3.92.11-7.2.24-7.27.13-.08.28.06.33.31.21 1.02-.08 14.09-.32 14.09-.15 0-.25-2.87-.25-7.13m-80.7 5.82c0-.12 1.44-.16 3.2-.1 1.75.07 3.5.01 3.9-.12.52-.19.8-.16 1.04.1.27.28-.42.34-3.9.34-2.33 0-4.23-.1-4.23-.22m15.95-1.87c0-.65.05-.92.12-.6s.06.87 0 1.2c-.07.32-.12.06-.12-.6m60.83-.53c0-.36.06-.51.13-.33s.07.48 0 .66-.13.04-.13-.33m-35.47-2.31a8 8 0 0 1 .08-1.92c.06 0 .33-.08.6-.17.4-.14.42-.1.15.18-.4.43-.44 1.15-.06.92.14-.1.26-.05.26.09s-.12.3-.27.35c-.14.05-.37.62-.5 1.28-.22 1.15-.23 1.13-.26-.73m15.39.73c0-.66.05-.93.11-.6.07.33.07.86 0 1.2-.06.32-.11.05-.11-.6m2.64 0c0-.66.06-.93.12-.6s.06.86 0 1.2c-.06.32-.12.05-.12-.6m-45.59.46c-.14-.76-.08-4.7.07-4.7.11 0 .2 1.07.2 2.38s-.05 2.38-.12 2.38q-.13 0-.15-.06m2.23-1.65c-.08-.21-.1-.54-.04-.72.07-.2.18-.02.26.38.15.79.02.98-.22.34m8.37-.34c0-.47.04-.86.1-.86.24 0 .34 1.04.13 1.36q-.23.38-.23-.5m2.78.52c.14-.14 1.4-.33 2.77-.42 3.07-.19 2.4.21-.79.48-1.44.12-2.15.1-1.98-.06m9.72-.72c-.98-.92-.98-.93-.16-.48.45.25.96.67 1.12.94q.67 1.08-.96-.46m-20.14-.33c-.02-.61-.15-1.12-.3-1.12-.45 0-.3-1.28.2-1.6.44-.28.44-.28 0-.15-.26.08-.46.03-.46-.11s.21-.26.47-.26c.42 0 .47.21.38 1.79-.11 2.24-.25 2.93-.3 1.45m42.63-.2c0-.58.06-.78.12-.45s.06.8 0 1.05c-.07.26-.12-.01-.12-.6m-15.09-.13c0-.5.06-.71.12-.46.07.26.07.67 0 .93-.06.25-.12.04-.12-.47m-5.4-.25c-.07-.47-.02-.71.14-.61q.24.12.1-.28c-.1-.26-.04-.45.15-.45q.32 0-.05-.24c-.3-.18-.18-.36.53-.79 1.23-.75 1.43-.7.77.24-.31.44-.68.8-.81.8-.14 0-.25.47-.25 1.05 0 1.23-.42 1.43-.58.28m31.05-.01c0-.36.06-.51.13-.33s.07.48 0 .66-.13.03-.13-.33m-44.23-.28c0-.19 3.7-.5 3.95-.32.27.17-.24.28-2.03.4-1.06.07-1.92.04-1.92-.08m-1.32-.47c0-.38.7-.58 1.94-.54l1.1.04-1.19.17c-.65.1-1.34.26-1.52.37-.18.12-.33.1-.33-.04m7.51-.26q.18-.3-.34-.31c-.29 0-.6-.1-.67-.24-.16-.25 3.19-.56 3.77-.35.66.24-.29.6-1.14.44-.6-.11-.7-.08-.4.13.34.24.34.27-.05.28-.24 0-.64.08-.9.18q-.47.18-.27-.13m-2.66-.35c.35-.2.57-.2.78 0q.35.31-.49.3c-.68-.01-.72-.05-.29-.3m39.42-1.55c0-1.1.05-1.54.1-1 .06.55.06 1.45 0 2-.05.54-.1.09-.1-1m5.7 1.17-.09-1.37c-.04-.54.06-.86.26-.86.23 0 .29.36.2 1.26-.15 1.34-.32 1.8-.37.97m-46.48-.51c0-.44.06-.58.13-.33.07.26.06.62 0 .8-.08.18-.14-.03-.13-.47m42.55.43c0-.12.31-.16.7-.09.49.1.81-.01 1.06-.35.33-.46.35-.46.35.1 0 .5-.14.57-1.06.57-.58 0-1.05-.1-1.05-.23m-41.81-2.62.13-2.57.08 2.36c.04 1.3-.02 2.45-.13 2.56-.12.12-.15-.94-.08-2.35m12.18 2.39c0-.11.18-.43.4-.71.4-.53.51-.27.23.49-.17.42-.65.59-.63.22m-25.51-.44c.09-.23.27-.42.42-.42.34 0 .13.6-.27.73q-.3.1-.15-.31m22.38-.2c-.42-.43-.4-.88.05-1.25.3-.25.39-.14.48.62.11 1-.01 1.14-.53.62m5.5.04a2 2 0 0 1 .93-.25c.44 0 .46.04.13.25a2 2 0 0 1-.92.26c-.44 0-.47-.04-.14-.26m9-.86c.02-.79.04-.82.39-.37.2.27.3.66.22.86-.25.68-.61.39-.6-.49m-35.17-.6c0-.72.1-2.03.24-2.9s.3-2.48.38-3.57c.14-2.28.26-2.92.68-3.7.16-.3.22-.66.13-.8q-.1-.24.25-.1c.35.13.35.22 0 .74-.24.38-.57 2.48-.92 5.86-.57 5.64-.73 6.58-.76 4.48m17.97.14c0-.44.12-.8.27-.8.14 0 .26.36.26.8s-.12.8-.26.8-.27-.36-.27-.8m13.27.18c-.2-.24-.3-.62-.2-.84.31-.83.23-8.23-.1-8.77-.28-.44-.67-.53-2.45-.59-2.5-.07-3.9.16-3.34.54.3.22.3.24-.04.15-.21-.06-.4-.33-.4-.61 0-.46.19-.5 1.73-.45 1.25.04 1.61-.01 1.32-.21-.28-.2.14-.25 1.52-.19 1.05.05 2.03.22 2.19.37.17.17.25 2.19.2 5.65-.06 4.58-.13 5.32-.43 4.95m.22-10.09c0-.06-.11-.19-.26-.28q-.24-.12-.26.12c0 .15.11.28.26.28q.24 0 .26-.12m-2.45-.57c-.09-.09-.31-.1-.5-.02q-.31.14.15.16c.28.01.44-.05.35-.14m30.5 10.75c0-.15.12-.27.27-.27.14 0 .26.12.26.27 0 .14-.12.26-.26.26a.3.3 0 0 1-.27-.26m-34.92-.51c0-.33.17-.55.41-.55.25 0 .38.18.33.44-.13.66-.74.75-.74.1m30.7-.7q.03-.48.17-.17c.07.2.07.42-.02.51s-.15-.07-.14-.35m-20.08-2.43c-.02-1.5.05-2.72.16-2.72s.16.87.12 1.92c-.12 3.3-.23 3.62-.28.8m12.47-.6c0-.65.05-.92.11-.6s.06.87 0 1.2-.11.06-.11-.6m8.52.53c-.09-.14.09-.26.38-.26s.55.12.55.26-.17.27-.38.27-.46-.12-.55-.27m5.7 0c0-.14.38-.26.85-.24.72.01.78.05.33.24-.73.32-1.19.32-1.19 0m-51-2.64c0-.66.05-.93.11-.6.07.33.07.86 0 1.2-.06.32-.11.05-.11-.6m9.85.79c.09-.15.22-.27.28-.27s.12.12.12.27c0 .14-.13.26-.28.26s-.21-.12-.12-.26m.4-1.3c0-.13.23-.29.52-.36.47-.13.53-.42.6-3.4l.1-3.28-.02 3.41c-.01 3.3-.03 3.42-.6 3.63-.34.12-.6.12-.6 0m12.7-.69c0-.36.12-.66.26-.66s.27.25.27.55q0 .52.3.35.28-.16.12.12c-.35.56-.95.33-.95-.36m0-3.95c0-1.33.1-2.26.26-2.26.15 0 .27.87.27 2.1 0 1.15-.12 2.17-.27 2.26-.17.1-.26-.66-.26-2.1m-23 1.55q.02-.46.16-.16c.07.2.07.42-.02.5-.1.1-.15-.06-.14-.34m31.2.05q0-.42.66-.42c.36 0 .66.12.66.26s-.1.27-.24.27-.43.07-.66.16q-.42.15-.42-.27m4.5-.42c-.58-.18-.53-.2.33-.2.54.01.99.12.99.24 0 .26-.41.25-1.32-.04m5.07-.53c0-.37.06-.52.13-.33.07.18.07.48 0 .66s-.13.03-.13-.33m-49-.97q.02-.33.23-.25c.23.14 1.63-.24 2.51-.69.27-.13.56-.18.64-.1.22.22.13.26-1.72.88-1.38.46-1.65.48-1.65.16m8.27-.36c0-.5.05-.71.12-.46.07.26.07.67 0 .93-.07.25-.12.04-.12-.47m39.5-.26q-.5-.18-.2-.36c.26-.16 1.38.21 1.38.46 0 .14-.67.08-1.18-.1m-41.5-1.25q.31-.21.45-4.27c.07-2.23.2-4.13.29-4.21.08-.1.12 1.8.08 4.19-.07 4.1-.1 4.35-.6 4.43q-.52.07-.22-.14m25.16-1.07a2 2 0 0 1 .08-1c.16-.4.21-.28.23.48.02 1.06-.11 1.28-.31.52m-.59-2.85c-.28-.21-.38-.39-.23-.39.16 0 .44.18.62.4q.6.75-.39 0m-10.53-.3c.18-.07.48-.07.66 0s.04.14-.33.14c-.36 0-.51-.06-.33-.14m.93-3.2c.03-.45.16-.55.55-.43.3.1.44.06.34-.1-.09-.15.02-.34.25-.43q.4-.15.22.15-.2.31.27.13c.25-.1.6-.18.77-.18q.26-.02-.09-.26-.42-.26 1.99-.2c2.15.03 2.22.05.66.15-1.24.07-1.57.16-1.2.32.42.17.29.23-.55.24-1.22.02-2.79.5-3.07.92-.1.16-.16.02-.14-.3m7.47-.33c-.2-.33.15-.33.66 0 .35.22.34.26-.05.26-.24 0-.52-.11-.6-.26m-6-3.3c-.06-.51 0-.93.13-.93s.18-.15.11-.34q-.13-.33.57-.37c.38-.01.49.03.23.1-.35.1-.46.4-.46 1.3 0 1.38-.43 1.56-.58.24m2.43 0c0-.71.11-.93.46-.93.4 0 .4.05.07.27q-.4.25-.07.26c.19 0 .33.3.33.66 0 .41-.15.66-.4.66-.27 0-.39-.28-.39-.92m2.65.26c0-.36.12-.66.26-.66s.27.3.27.66-.12.66-.27.66c-.14 0-.26-.3-.26-.66m-6.62-.77c0-.08.24-.26.53-.42s.53-.22.53-.15-.24.26-.53.42-.53.22-.53.15m3.57-.95c-.5-.22-.5-.23.07-.24.33-.01.6.1.6.24q0 .25-.07.25zm1.85-.01c-.09-.14.09-.25.39-.25q.97.02.15.35c-.21.09-.46.04-.54-.1m66.59-8.72c0-.36.06-.51.13-.33s.08.48 0 .66-.13.03-.13-.33m-135.77-.4c0-.21.04-.4.1-.4s.17.19.26.4.03.4-.1.4c-.15 0-.26-.18-.26-.4m.42-1.08c-.1-.25-.05-.54.1-.64s.21-.37.12-.61c-.1-.25-.04-.44.11-.44.16 0 .22-.18.14-.4-.09-.22-.03-.4.13-.4s.2-.2.11-.44c-.13-.35-.06-.4.31-.26.4.15.43.11.18-.18-.33-.4-.14-1.24.27-1.24q.23-.02.12-.2c-.07-.12-.03-.37.08-.55.15-.25.3-.21.57.15.2.26.26.38.12.27-.28-.24-1 1.34-.77 1.7.09.14-.02.4-.24.57-.21.17-.45.83-.53 1.47-.16 1.33-.55 1.9-.82 1.2m134.36-.78c-.21-.52-.33-1.04-.25-1.17.22-.36-.15-1.08-.46-.9q-.24.14-.1-.12c.25-.4-.55-2.24-.88-2.04q-.24.13-.1-.24c.18-.49-.33-.57-.53-.08-.07.18-.07-.07.02-.55.1-.66 0-1.08-.44-1.67-.32-.43-.53-.93-.47-1.1.2-.6 2.51 3.56 3.39 6.1.26.77.41 1.58.33 1.79s-.02.39.15.39.29.12.29.26c0 .61-.59.2-.95-.67m-132.22-5c-.08-.2.1-.65.4-.99.49-.53.53-.54.35-.08-.11.29-.2.73-.19.99.02.55-.36.61-.56.09m1-2c-.08-.15.03-.34.26-.43.22-.08.35-.25.27-.37a.25.25 0 0 1 .08-.35c.12-.08.24.15.27.5.04.49-.05.6-.39.46q-.44-.16-.24.14.16.29.06.31c-.08 0-.21-.12-.3-.26M43.6 85c-.09-.21.57-1.07 1.62-2.12 1.85-1.83 2.16-2.02 2.16-1.36 0 .36-.31.51-.85.43-.1-.01-.12.15-.04.37.08.21.01.4-.16.4q-.27.02-.14.26c.1.15-.13.26-.52.26-.37 0-.67.11-.67.24 0 .14-.08.45-.18.7-.13.36-.09.42.2.24.32-.2.32-.16 0 .23-.2.25-.42.4-.5.32-.07-.08-.28-.02-.46.13q-.33.29-.46-.1m.64-.64q.51-.6-.1-.1c-.44.35-.58.57-.37.57.06 0 .27-.21.47-.47m124.9.53q-.29-.39-.15-.09.17.36-.13.19a.8.8 0 0 1-.3-.59c0-.22-.12-.32-.26-.24q-.25.13-.1-.26.17-.44-.4-.57c-.31-.09-.57-.32-.57-.52s-.14-.33-.33-.3c-.18.04-.3-.08-.26-.26s-.1-.33-.3-.33-.43-.23-.5-.5c-.1-.38-.34-.5-.94-.46-.44.03-.75-.03-.68-.15.07-.1-.18-.28-.54-.37-.37-.1-.6-.27-.53-.4.16-.27-.5-1.03-.88-1.03a4 4 0 0 1-1.03-.4 7 7 0 0 0-1.3-.48 8 8 0 0 1-1.04-.3c-1.3-.49-1.93-.65-3.1-.8-1.32-.18-1.76-.67-.6-.67.36 0 .66.12.66.27s.27.2.63.11c.35-.09.7-.03.8.12s.37.2.6.1q.47-.18.22.2-.26.38.24.17c.97-.37 6.18 2.37 8.69 4.57 1.43 1.25 3.21 3.46 2.8 3.46-.2 0-.51-.21-.7-.47M48.17 80.33c1.25-.97 3.71-2.18 3.54-1.73-.08.22-.37.4-.64.4s-.56.13-.65.27 0 .27.18.27c.2 0 .02.22-.38.48-.4.27-.64.57-.54.67q.14.17-.26.02c-.25-.1-.37-.3-.28-.45.1-.16-.1-.09-.45.16-.88.61-1.33.54-.52-.09m4.11-2.1c-.08-.13.42-.42 1.1-.65 1.45-.5 1.4-.5 1.4-.2 0 .14-.24.3-.55.39-.3.08-.5.24-.42.36.07.12-.21.24-.63.27s-.82-.05-.9-.17m2.88-1.1q-.2-.34.24-.16c.23.09.5.04.6-.11.1-.16.4-.22.67-.15s.57.02.65-.11c.08-.14.59-.26 1.12-.27 4.05-.11 95.1-.16 94.84-.06-.19.08-.29.22-.23.31.06.1-20.62.14-45.97.1-43.9-.08-48.97-.02-51.28.64-.24.06-.53-.02-.64-.2" style="fill:#0c1c31" transform="translate(-38.38 -76.1)"/></svg>